<?xml version="1.0" standalone="no"?>
<!DOCTYPE svg PUBLIC "-//W3C//DTD SVG 20010904//EN"
 "http://www.w3.org/TR/2001/REC-SVG-20010904/DTD/svg10.dtd">
<svg version="1.0" xmlns="http://www.w3.org/2000/svg"
 width="812.000000pt" height="812.000000pt" viewBox="0 0 812.000000 812.000000"
 preserveAspectRatio="xMidYMid meet">
<metadata>
Created by potrace 1.14, written by Peter Selinger 2001-2017
</metadata>
<g transform="translate(0.000000,812.000000) scale(0.100000,-0.100000)"
fill="#000000" stroke="none">
<path d="M4307 7603 c-1 -1 -36 -4 -77 -8 -158 -13 -276 -37 -400 -80 -41 -14
-79 -27 -85 -28 -5 -2 -49 -21 -96 -44 -203 -97 -404 -246 -574 -423 -33 -35
-72 -76 -87 -91 -16 -16 -28 -33 -28 -39 0 -5 -4 -10 -9 -10 -8 0 -201 -254
-201 -265 0 -4 -11 -21 -25 -39 -14 -18 -25 -38 -25 -44 0 -7 -4 -12 -10 -12
-5 0 -10 -7 -10 -15 0 -8 -4 -15 -10 -15 -5 0 -10 -4 -10 -9 0 -5 -21 -45 -46
-88 -59 -99 -217 -413 -217 -430 0 -7 -4 -13 -9 -13 -4 0 -8 -4 -8 -10 0 -5
-13 -38 -29 -72 -15 -35 -50 -117 -75 -183 -26 -66 -54 -132 -62 -147 -8 -16
-13 -28 -10 -28 3 0 -8 -32 -25 -71 -16 -40 -29 -79 -29 -88 0 -10 -4 -21 -9
-26 -8 -10 -83 -236 -83 -252 0 -4 -4 -16 -10 -26 -5 -10 -11 -27 -14 -38 -8
-36 -13 -54 -23 -84 -12 -33 -51 -162 -56 -185 -2 -8 -24 -96 -50 -194 -26
-99 -49 -191 -52 -205 -2 -13 -6 -28 -8 -32 -3 -4 -7 -24 -11 -44 -3 -21 -7
-45 -10 -54 -9 -39 -45 -209 -50 -240 -3 -18 -8 -43 -10 -55 -8 -42 -43 -252
-48 -291 -3 -22 -10 -78 -17 -125 -6 -47 -13 -107 -15 -135 -2 -27 -6 -68 -8
-90 -24 -225 -24 -619 -1 -845 12 -115 29 -229 45 -310 6 -25 12 -56 15 -70
44 -220 131 -448 243 -635 20 -33 40 -61 44 -63 4 -2 8 -8 8 -13 0 -34 219
-280 310 -348 19 -14 40 -31 45 -37 16 -18 144 -104 155 -104 5 0 10 -4 10 -8
0 -18 385 -196 417 -193 2 0 18 -6 38 -15 19 -8 36 -14 37 -13 2 0 10 -2 18
-5 8 -2 29 -8 45 -12 17 -4 37 -9 45 -11 19 -5 28 -7 175 -38 156 -33 194 -37
415 -38 222 -1 339 13 491 60 30 9 59 18 64 19 62 17 192 77 280 128 33 20 67
39 75 43 22 10 148 100 205 146 234 190 457 458 640 769 6 9 23 41 39 70 15
29 32 58 37 64 27 34 211 417 284 594 30 71 126 323 135 355 2 6 16 46 32 90
16 44 31 87 33 95 2 8 12 42 23 75 11 33 34 110 52 170 18 61 41 139 52 175
11 36 21 72 23 80 2 8 17 71 35 140 18 69 33 132 35 140 2 8 12 54 24 102 22
93 23 99 41 193 17 82 18 90 20 90 1 0 3 14 5 30 2 17 7 46 11 65 4 19 8 40
10 47 1 6 4 29 7 50 3 21 10 67 16 103 6 36 13 88 16 115 3 28 8 59 10 70 2
11 7 52 10 90 3 39 8 81 11 95 24 140 24 704 -1 905 -12 98 -18 139 -29 210
-23 143 -97 415 -142 525 -61 146 -216 417 -245 428 -5 2 -9 8 -9 13 0 12 -38
54 -140 158 -89 90 -242 211 -320 252 -25 13 -46 27 -48 32 -2 4 -9 7 -17 7
-7 0 -18 7 -25 15 -7 9 -15 13 -17 11 -3 -3 -28 8 -57 23 -81 44 -313 133
-381 146 -11 2 -20 4 -20 5 0 1 -7 3 -15 5 -8 1 -33 8 -55 13 -109 30 -286 59
-410 68 -73 6 -215 10 -218 7z m353 -696 c8 -2 33 -7 55 -12 71 -13 181 -45
244 -70 81 -31 191 -88 191 -97 0 -5 5 -8 12 -8 38 0 215 -166 291 -271 68
-96 149 -270 172 -369 2 -8 8 -30 14 -49 6 -18 10 -36 9 -40 0 -3 1 -8 2 -11
3 -8 9 -43 15 -80 2 -19 7 -46 10 -60 33 -154 34 -628 1 -880 -3 -19 -7 -55
-10 -80 -3 -25 -8 -59 -10 -75 -2 -17 -7 -53 -11 -80 -7 -55 -10 -74 -20 -125
-3 -19 -8 -48 -11 -65 -5 -28 -60 -306 -69 -350 -3 -11 -7 -32 -11 -48 -4 -21
-10 -26 -27 -23 -21 5 -181 47 -302 81 -33 9 -68 18 -79 20 -10 3 -44 12 -75
21 -31 9 -63 17 -71 19 -8 2 -67 17 -130 35 -63 17 -122 33 -130 35 -8 2 -76
20 -150 40 -74 20 -166 44 -205 55 -120 32 -216 57 -335 90 -63 17 -122 32
-130 35 -8 2 -60 15 -115 30 -55 15 -122 33 -150 40 -27 7 -77 20 -110 30 -33
9 -69 18 -80 21 -11 2 -94 24 -185 50 -91 25 -172 47 -180 49 -8 1 -35 8 -60
15 -25 7 -52 14 -60 16 -135 33 -139 35 -128 63 5 14 11 33 13 41 2 8 29 89
60 180 31 91 64 189 73 218 8 28 19 52 24 52 4 0 8 7 8 16 0 45 273 647 310
684 3 3 14 21 24 40 10 19 32 54 48 78 15 24 28 45 28 48 0 11 106 158 175
244 196 243 468 412 718 446 23 4 43 8 45 9 5 5 284 -3 302 -8z m-1930 -2748
c41 -11 109 -29 150 -40 41 -11 109 -29 150 -41 70 -18 246 -65 280 -74 8 -2
83 -22 165 -44 83 -23 158 -43 168 -45 27 -8 44 -12 182 -50 72 -19 140 -37
152 -39 13 -3 26 -7 31 -10 5 -3 21 -7 37 -10 16 -3 54 -13 85 -21 30 -9 71
-20 90 -25 19 -5 67 -18 105 -29 39 -10 106 -28 150 -40 44 -12 139 -37 210
-57 72 -19 139 -37 150 -39 11 -2 45 -11 75 -20 30 -9 62 -17 70 -19 8 -2 85
-23 170 -46 85 -22 164 -43 174 -45 35 -8 36 -19 7 -115 -64 -210 -149 -465
-176 -525 -7 -16 -21 -52 -31 -80 -9 -27 -28 -74 -41 -103 -12 -29 -23 -55
-23 -58 0 -7 -9 -26 -68 -156 -22 -48 -37 -89 -34 -92 3 -3 1 -6 -5 -6 -6 0
-21 -24 -33 -52 -18 -44 -68 -137 -134 -253 -22 -38 -81 -129 -156 -239 -27
-39 -74 -99 -115 -145 -53 -60 -197 -201 -205 -201 -4 0 -20 -12 -38 -27 -75
-67 -263 -157 -392 -189 -111 -27 -273 -36 -396 -20 -196 25 -402 100 -559
204 -62 41 -192 162 -235 217 -120 155 -208 373 -241 597 -20 138 -23 194 -23
428 -1 209 6 364 19 440 2 14 7 52 10 85 3 33 8 71 10 85 5 31 14 93 21 144 2
21 6 42 8 45 2 3 7 29 10 56 7 55 14 90 16 90 1 0 3 9 5 20 9 57 17 104 25
135 5 19 12 49 14 65 5 27 17 80 47 210 5 22 14 58 20 80 6 22 11 48 12 58 2
21 -4 21 87 -4z"/>
</g>
</svg>
