<svg width="498" height="588" viewBox="0 0 498 588" fill="none" xmlns="http://www.w3.org/2000/svg">
<path d="M250.299 196.579H248.038V121.248C248.038 109.635 243.424 98.4978 235.213 90.286C227.001 82.0743 215.863 77.461 204.25 77.461H43.7874C38.0372 77.461 32.3432 78.5936 27.0307 80.7941C21.7182 82.9946 16.8911 86.22 12.825 90.286C8.75899 94.3521 5.53363 99.1792 3.33311 104.492C1.13258 109.804 -1.80603e-06 115.498 0 121.248V536.534C-1.80603e-06 542.284 1.13258 547.978 3.33311 553.291C5.53363 558.603 8.75899 563.43 12.825 567.496C16.8911 571.562 21.7182 574.788 27.0307 576.988C32.3432 579.189 38.0372 580.321 43.7874 580.321H204.25C215.863 580.321 227.001 575.708 235.213 567.496C243.424 559.285 248.038 548.147 248.038 536.534V250.107H250.299V196.579Z" fill="#3F3D56"/>
<path d="M238.237 118.245V535.557C238.237 544.23 234.792 552.548 228.659 558.681C222.526 564.814 214.209 568.259 205.536 568.259H44.7644C36.0914 568.259 27.7737 564.814 21.641 558.681C15.5083 552.548 12.063 544.23 12.063 535.557V118.245C12.063 110.428 15.1684 102.93 20.6961 97.4028C26.2238 91.8751 33.7209 88.7697 41.5382 88.7697H64.2369C63.3796 90.9136 62.9979 93.218 63.1179 95.5238C63.238 97.8296 63.8571 100.082 64.9323 102.125C66.2412 104.381 68.095 106.274 70.3241 107.628C72.5533 108.983 75.0865 109.757 77.6921 109.879H171.229C173.835 109.757 176.368 108.983 178.597 107.628C180.827 106.273 182.68 104.381 183.989 102.124C185.064 100.081 185.683 97.8288 185.803 95.5232C185.923 93.2176 185.541 90.9135 184.684 88.7698H208.762C216.579 88.7698 224.076 91.8752 229.604 97.4028C235.132 102.931 238.237 110.428 238.237 118.245Z" fill="white"/>
<path d="M424.527 4.9788C424.527 4.9788 407.471 -1.11274 396.506 23.2534C385.541 47.6195 368.485 74.4223 368.485 74.4223L378.231 76.859C378.231 76.859 380.668 59.8027 386.759 57.3661L384.323 79.2956C384.323 79.2956 457.421 104.88 490.316 76.859L489.097 68.3308C489.097 68.3308 493.971 69.5491 493.971 76.859L497.626 73.204C497.626 73.204 493.971 65.8942 483.006 56.1477C475.809 49.7506 473.336 37.5801 472.486 29.9708C471.849 23.617 469.307 17.604 465.193 12.7204C457.906 4.27562 444.629 -4.69998 424.527 4.9788Z" fill="#2F2E41"/>
<path d="M324.355 214.005L340.304 234.304L350.455 222.704L341.755 208.204L324.355 214.005Z" fill="#FBBEBE"/>
<path d="M318.555 525.746L312.756 556.194L327.255 563.445L337.405 556.194V525.746H318.555Z" fill="#FBBEBE"/>
<path d="M420.052 525.746L425.853 556.194L411.353 563.445L401.202 556.194V525.746H420.052Z" fill="#FBBEBE"/>
<path d="M360.604 251.704L340.304 396.699L311.305 528.647L346.105 532.997L373.654 409.749L408.452 305.352L404.103 430.049L396.853 532.997H422.952L441.801 393.8L462.645 290.309L462.1 251.704H360.604Z" fill="#2F2E41"/>
<path d="M322.905 553.295C322.905 553.295 315.655 544.596 311.305 548.946C306.955 553.295 296.806 570.695 296.806 570.695C296.806 570.695 273.606 583.745 292.456 586.645C311.305 589.544 317.105 586.644 317.105 585.195C317.105 583.745 320.005 579.395 320.005 579.395L327.255 580.845L337.405 577.945C337.405 577.945 341.754 551.229 337.405 552.262C333.055 553.295 324.355 557.645 322.905 553.295Z" fill="#2F2E41"/>
<path d="M415.702 553.295C415.702 553.295 422.952 544.596 427.302 548.946C431.652 553.295 441.802 570.695 441.802 570.695C441.802 570.695 465.001 583.745 446.152 586.645C427.302 589.544 421.502 586.644 421.502 585.195C421.502 583.745 418.602 579.395 418.602 579.395L411.353 580.845L401.203 577.945C401.203 577.945 396.853 551.229 401.203 552.262C405.553 553.295 414.252 557.645 415.702 553.295Z" fill="#2F2E41"/>
<path d="M429.477 79.8831C445.493 79.8831 458.476 66.8998 458.476 50.884C458.476 34.8681 445.493 21.8847 429.477 21.8847C413.461 21.8847 400.478 34.8681 400.478 50.884C400.478 66.8998 413.461 79.8831 429.477 79.8831Z" fill="#FBBEBE"/>
<path d="M449.051 69.0086C449.051 69.0086 446.152 93.6579 447.602 99.4578C449.052 105.258 451.951 113.957 451.951 113.957L405.553 105.258C405.553 105.258 418.602 77.7084 415.702 73.3585C412.802 69.0086 449.051 69.0086 449.051 69.0086Z" fill="#FBBEBE"/>
<path d="M453.401 103.808L405.553 93.6581L378.003 261.853C390.421 258.463 403.581 258.969 415.702 263.303C436.002 270.553 463.551 263.303 463.551 263.303L457.751 105.258L453.401 103.808Z" fill="#A8DADC"/>
<path d="M415.299 80.3365L398.303 89.3079L376.554 93.6578L353.354 148.756L356.254 187.905C356.254 187.905 331.605 232.854 328.705 257.503C328.705 257.503 331.605 295.202 379.454 293.752L411.353 205.305C411.353 205.305 424.402 138.607 411.353 119.757C411.353 119.757 420.695 84.4147 415.299 80.3365Z" fill="#2F2E41"/>
<path d="M385.253 93.6579L380.558 92.8569L376.554 93.6579C376.554 93.6579 366.404 95.1079 354.804 105.258C343.205 115.407 304.056 147.306 301.156 156.006C298.256 164.706 299.706 179.206 304.056 187.905C308.406 196.605 317.105 208.205 317.105 208.205L321.455 218.354L346.104 211.105C346.104 211.105 330.155 180.656 331.605 167.606L360.604 144.406L385.253 93.6579Z" fill="#2F2E41"/>
<path d="M447.446 86.8918L469.351 113.957L480.951 128.457L466.451 177.756L459.201 219.804C459.201 219.804 476.601 286.503 462.101 306.802C462.101 306.802 453.401 316.952 450.501 305.352C447.602 293.752 447.602 238.654 447.602 238.654C447.602 238.654 436.002 166.156 441.802 147.306C447.602 128.457 441.49 90.2755 447.446 86.8918Z" fill="#2F2E41"/>
<path d="M467.901 296.652V311.152C467.901 311.152 465.001 359.001 479.501 353.201C494.001 347.401 483.851 311.152 483.851 311.152L482.401 295.202L467.901 296.652Z" fill="#FBBEBE"/>
<path d="M397.151 52.4302C408.179 44.449 417.106 35.2562 423.012 24.321C423.012 24.321 443.25 46.8084 455.618 47.9327C467.987 49.0571 456.743 20.9479 456.743 20.9479L434.255 15.326L412.892 17.5748L396.027 28.8185L397.151 52.4302Z" fill="#2F2E41"/>
<path d="M469.351 124.106L480.95 128.456L482.401 142.956L488.2 231.404L485.3 298.103L463.551 299.553L456.301 225.604L453.402 144.407L469.351 124.106Z" fill="#2F2E41"/>
<path d="M212.957 207.041H36.71V224.556H212.957V207.041Z" fill="#A8DADC"/>
<path d="M212.957 248.298H36.71V254.932H212.957V248.298Z" fill="#E6E6E6"/>
<path d="M212.957 268.547H36.71V275.18H212.957V268.547Z" fill="#E6E6E6"/>
<path d="M127.777 289.051H36.71V295.685H127.777V289.051Z" fill="#E6E6E6"/>
<path d="M212.957 309.92H36.71V316.554H212.957V309.92Z" fill="#E6E6E6"/>
<path d="M212.957 330.789H36.71V337.423H212.957V330.789Z" fill="#E6E6E6"/>
<path d="M124.727 351.658H36.71V358.292H124.727V351.658Z" fill="#E6E6E6"/>
<path d="M212.957 372.526H36.71V379.16H212.957V372.526Z" fill="#E6E6E6"/>
<path d="M212.957 393.395H36.71V400.029H212.957V393.395Z" fill="#E6E6E6"/>
<path d="M213.167 418.992H157.511V437.29H213.167V418.992Z" fill="#A8DADC"/>
</svg>
