<svg width="312" height="114" viewBox="0 0 312 114" fill="none" xmlns="http://www.w3.org/2000/svg">
<path d="M94.3269 44.48C94.3269 43.5413 94.6255 42.5813 95.2229 41.6L114.231 7.296H98.0389C97.2282 7.296 96.5882 6.95466 96.1189 6.272C95.6922 5.54667 95.4789 4.672 95.4789 3.648C95.4789 2.66667 95.6922 1.81333 96.1189 1.088C96.5455 0.362666 97.1855 0 98.0389 0H122.359C124.023 0 124.855 0.746666 124.855 2.24C124.855 3.17867 124.535 4.18133 123.895 5.248L104.951 39.488H123.383C124.151 39.488 124.77 39.872 125.239 40.64C125.751 41.3653 126.007 42.1973 126.007 43.136C126.007 44.0747 125.751 44.928 125.239 45.696C124.77 46.4213 124.151 46.784 123.383 46.784H96.8229C95.1589 46.784 94.3269 46.016 94.3269 44.48Z" fill="#1D3557"/>
<path d="M130.708 44.16V2.624C130.708 1.81333 131.071 1.17333 131.796 0.703999C132.522 0.234666 133.375 0 134.356 0H157.14C157.994 0 158.634 0.362666 159.06 1.088C159.53 1.81333 159.764 2.64533 159.764 3.584C159.764 4.608 159.53 5.48267 159.06 6.208C158.591 6.93333 157.951 7.296 157.14 7.296H139.028V20.096H148.756C149.567 20.096 150.207 20.4373 150.676 21.12C151.146 21.76 151.38 22.528 151.38 23.424C151.38 24.2347 151.146 24.9813 150.676 25.664C150.25 26.304 149.61 26.624 148.756 26.624H139.028V39.488H157.14C157.951 39.488 158.591 39.8507 159.06 40.576C159.53 41.3013 159.764 42.176 159.764 43.2C159.764 44.1387 159.53 44.9707 159.06 45.696C158.634 46.4213 157.994 46.784 157.14 46.784H134.356C133.375 46.784 132.522 46.5493 131.796 46.08C131.071 45.6107 130.708 44.9707 130.708 44.16Z" fill="#1D3557"/>
<path d="M164.646 44.16V2.56C164.646 1.87733 164.902 1.28 165.414 0.767998C165.926 0.255999 166.566 0 167.334 0H180.006C190.118 0 195.174 4.45867 195.174 13.376C195.174 16.8747 194.406 19.6907 192.87 21.824C191.377 23.9573 189.35 25.408 186.79 26.176L195.174 41.728C195.387 41.984 195.494 42.3253 195.494 42.752C195.494 43.8187 194.939 44.8213 193.83 45.76C192.721 46.656 191.547 47.104 190.31 47.104C189.073 47.104 188.113 46.4427 187.43 45.12L178.342 27.456H172.966V44.16C172.966 44.9707 172.561 45.6107 171.75 46.08C170.939 46.5493 169.958 46.784 168.806 46.784C167.697 46.784 166.715 46.5493 165.862 46.08C165.051 45.6107 164.646 44.9707 164.646 44.16ZM172.966 20.928H180.006C184.571 20.928 186.854 18.6667 186.854 14.144C186.854 9.57866 184.571 7.296 180.006 7.296H172.966V20.928Z" fill="#1D3557"/>
<path d="M200.634 32.512V14.656C200.634 9.57866 201.978 5.86666 204.666 3.52C207.397 1.17333 211.045 0 215.61 0C220.175 0 223.823 1.17333 226.554 3.52C229.285 5.86666 230.65 9.57866 230.65 14.656V32.512C230.65 37.5893 229.285 41.3013 226.554 43.648C223.823 45.9947 220.175 47.168 215.61 47.168C211.045 47.168 207.397 45.9947 204.666 43.648C201.978 41.3013 200.634 37.5893 200.634 32.512ZM208.954 32.512C208.954 37.4187 211.173 39.872 215.61 39.872C220.09 39.872 222.33 37.4187 222.33 32.512V14.656C222.33 9.74933 220.09 7.296 215.61 7.296C211.173 7.296 208.954 9.74933 208.954 14.656V32.512Z" fill="#1D3557"/>
<path d="M168.271 110.224V68.624C168.271 67.8133 168.634 67.1733 169.359 66.704C170.084 66.2347 170.938 66 171.919 66H184.271C192.847 66 197.135 69.7547 197.135 77.264C197.135 82.4693 195.322 85.8613 191.695 87.44C193.871 88.2933 195.514 89.5093 196.623 91.088C197.732 92.624 198.287 94.8853 198.287 97.872V99.216C198.287 103.952 197.135 107.408 194.831 109.584C192.527 111.717 189.412 112.784 185.487 112.784H171.919C170.852 112.784 169.978 112.528 169.295 112.016C168.612 111.504 168.271 110.907 168.271 110.224ZM176.527 105.488H183.759C187.898 105.488 189.967 103.163 189.967 98.512V97.488C189.967 95.0987 189.434 93.3707 188.367 92.304C187.343 91.2373 185.807 90.704 183.759 90.704H176.527V105.488ZM176.527 84.176H183.695C185.359 84.176 186.618 83.6853 187.471 82.704C188.367 81.7227 188.815 80.3787 188.815 78.672C188.815 77.008 188.346 75.7067 187.407 74.768C186.511 73.7867 185.252 73.296 183.631 73.296H176.527V84.176Z" fill="#1D3557"/>
<path d="M200.944 109.328C200.944 109.243 200.987 109.029 201.072 108.688L213.424 68.432C213.68 67.536 214.299 66.8533 215.28 66.384C216.304 65.872 217.456 65.616 218.736 65.616C220.016 65.616 221.168 65.872 222.192 66.384C223.216 66.8533 223.856 67.536 224.112 68.432L236.464 108.688C236.55 109.029 236.592 109.243 236.592 109.328C236.592 110.267 236.016 111.077 234.864 111.76C233.712 112.443 232.539 112.784 231.344 112.784C229.766 112.784 228.827 112.229 228.528 111.12L226.096 102.608H211.44L209.008 111.12C208.71 112.229 207.771 112.784 206.192 112.784C204.955 112.784 203.76 112.464 202.608 111.824C201.499 111.141 200.944 110.309 200.944 109.328ZM213.168 96.08H224.304L218.736 76.432L213.168 96.08Z" fill="#1D3557"/>
<path d="M241.021 110.16V68.624C241.021 67.7707 241.426 67.1307 242.237 66.704C243.048 66.2347 244.029 66 245.181 66C246.717 66 247.89 66.2773 248.701 66.832C249.512 67.3867 250.408 68.5813 251.389 70.416L263.741 94.288V68.56C263.741 67.7067 264.146 67.0667 264.957 66.64C265.768 66.2133 266.749 66 267.901 66C269.053 66 270.034 66.2133 270.845 66.64C271.656 67.0667 272.061 67.7067 272.061 68.56V110.16C272.061 110.971 271.634 111.611 270.781 112.08C269.97 112.549 269.01 112.784 267.901 112.784C265.64 112.784 264.04 111.909 263.101 110.16L249.341 84.432V110.16C249.341 110.971 248.914 111.611 248.061 112.08C247.25 112.549 246.29 112.784 245.181 112.784C244.029 112.784 243.048 112.549 242.237 112.08C241.426 111.611 241.021 110.971 241.021 110.16Z" fill="#1D3557"/>
<path d="M279.771 110.16V68.56C279.771 67.7067 280.176 67.0667 280.987 66.64C281.798 66.2133 282.779 66 283.931 66C285.083 66 286.064 66.2133 286.875 66.64C287.686 67.0667 288.091 67.7067 288.091 68.56V86.032L301.915 67.216C302.512 66.4053 303.28 66 304.219 66C305.286 66 306.352 66.4693 307.419 67.408C308.486 68.304 309.019 69.264 309.019 70.288C309.019 70.928 308.848 71.4613 308.507 71.888L297.051 86.224L311.003 107.472C311.302 107.899 311.451 108.389 311.451 108.944C311.451 109.968 310.918 110.928 309.851 111.824C308.827 112.677 307.696 113.104 306.459 113.104C305.179 113.104 304.219 112.571 303.579 111.504L291.547 93.264L288.091 97.616V110.16C288.091 110.971 287.664 111.611 286.811 112.08C286 112.549 285.04 112.784 283.931 112.784C282.779 112.784 281.798 112.549 280.987 112.08C280.176 111.611 279.771 110.971 279.771 110.16Z" fill="#1D3557"/>
<path d="M72.2194 65.4131C69.1753 76.7741 65.397 86.2276 60.8847 93.7736C56.4905 101.251 51.1928 106.523 44.9915 109.591C38.9083 112.591 31.7773 112.994 23.5985 110.803C12.0738 107.715 4.86529 100.601 1.97306 89.4605C-0.826231 78.3452 0.0509539 64.2903 4.60461 47.2958C7.67393 35.841 11.4183 26.3281 15.8376 18.7571C20.257 11.1862 25.5083 5.90117 31.5914 2.90202C37.7676 -0.0722237 44.8521 -0.488494 52.845 1.65321C64.4627 4.76616 71.7302 11.8458 74.6476 22.8921C77.6831 33.8694 76.8737 48.0431 72.2194 65.4131ZM50.1279 11.7936C43.0644 9.9009 37.0043 11.6986 31.9477 17.1868C27.0091 22.6059 22.6219 31.544 18.7859 44.001L61.446 55.4318C64.3525 42.7257 64.9756 32.779 63.3153 25.5917C61.6802 18.3105 57.2844 13.7111 50.1279 11.7936ZM26.3156 100.662C33.565 102.605 39.8148 100.657 45.0651 94.818C50.3153 88.9792 54.9038 79.29 58.8306 65.7503L16.0311 54.2822C12.6193 67.7586 11.6217 78.3597 13.038 86.0854C14.5474 93.8361 18.9732 98.6951 26.3156 100.662Z" fill="#1D3557"/>
</svg>
