<?xml version="1.0" encoding="utf-8"?>
<!-- Generator: Adobe Illustrator 25.1.0, SVG Export Plug-In . SVG Version: 6.00 Build 0)  -->
<svg version="1.1" id="Layer_1" xmlns="http://www.w3.org/2000/svg" xmlns:xlink="http://www.w3.org/1999/xlink" x="0px" y="0px"
	 viewBox="0 0 1200 630.3" style="enable-background:new 0 0 1200 630.3;" xml:space="preserve">
<style type="text/css">
	.st0{fill:#1D3557;}
</style>
<path class="st0" d="M408.4,277.6c0-2.9,0.9-5.9,2.8-9l59.1-106.7h-50.4c-2.5,0-4.5-1.1-6-3.2c-1.3-2.3-2-5-2-8.2c0-3.1,0.7-5.7,2-8
	c1.3-2.3,3.3-3.4,6-3.4h75.7c5.2,0,7.8,2.3,7.8,7c0,2.9-1,6-3,9.4l-58.9,106.5h57.4c2.4,0,4.3,1.2,5.8,3.6c1.6,2.3,2.4,4.8,2.4,7.8
	s-0.8,5.6-2.4,8c-1.5,2.3-3.4,3.4-5.8,3.4h-82.6C411,284.8,408.4,282.4,408.4,277.6z"/>
<path class="st0" d="M521.6,276.6V147.4c0-2.5,1.1-4.5,3.4-6c2.3-1.5,4.9-2.2,8-2.2h70.9c2.7,0,4.6,1.1,6,3.4
	c1.5,2.3,2.2,4.8,2.2,7.8c0,3.2-0.7,5.9-2.2,8.2c-1.5,2.3-3.5,3.4-6,3.4h-56.4v39.8h30.3c2.5,0,4.5,1.1,6,3.2c1.5,2,2.2,4.4,2.2,7.2
	c0,2.5-0.7,4.8-2.2,7c-1.3,2-3.3,3-6,3h-30.3v40h56.4c2.5,0,4.5,1.1,6,3.4c1.5,2.3,2.2,5,2.2,8.2c0,2.9-0.7,5.5-2.2,7.8
	c-1.3,2.3-3.3,3.4-6,3.4h-70.9c-3.1,0-5.7-0.7-8-2.2C522.7,281.1,521.6,279.1,521.6,276.6z"/>
<path class="st0" d="M627.2,276.6V147.2c0-2.1,0.8-4,2.4-5.6s3.6-2.4,6-2.4H675c31.5,0,47.2,13.9,47.2,41.6
	c0,10.9-2.4,19.6-7.2,26.3c-4.6,6.6-11,11.2-18.9,13.5l26.1,48.4c0.7,0.8,1,1.9,1,3.2c0,3.3-1.7,6.4-5.2,9.4
	c-3.5,2.8-7.1,4.2-11,4.2s-6.8-2.1-9-6.2l-28.3-55h-16.7v52c0,2.5-1.3,4.5-3.8,6c-2.5,1.5-5.6,2.2-9.2,2.2c-3.5,0-6.5-0.7-9.2-2.2
	C628.4,281.1,627.2,279.1,627.2,276.6z M653.1,204.3H675c14.2,0,21.3-7,21.3-21.1c0-14.2-7.1-21.3-21.3-21.3h-21.9V204.3z"/>
<path class="st0" d="M739.1,240.4v-55.6c0-15.8,4.2-27.3,12.5-34.6c8.5-7.3,19.8-11,34.1-11c14.2,0,25.6,3.7,34.1,11
	c8.5,7.3,12.7,18.9,12.7,34.6v55.6c0,15.8-4.2,27.3-12.7,34.6c-8.5,7.3-19.8,11-34.1,11c-14.2,0-25.6-3.7-34.1-11
	C743.3,267.7,739.1,256.1,739.1,240.4z M765,240.4c0,15.3,6.9,22.9,20.7,22.9c13.9,0,20.9-7.6,20.9-22.9v-55.6
	c0-15.3-7-22.9-20.9-22.9c-13.8,0-20.7,7.6-20.7,22.9V240.4z"/>
<path class="st0" d="M638.5,482.1V352.7c0-2.5,1.1-4.5,3.4-6c2.3-1.5,4.9-2.2,8-2.2h38.4c26.7,0,40,11.7,40,35
	c0,16.2-5.6,26.8-16.9,31.7c6.8,2.7,11.9,6.4,15.3,11.4c3.5,4.8,5.2,11.8,5.2,21.1v4.2c0,14.7-3.6,25.5-10.8,32.3
	c-7.2,6.6-16.9,10-29.1,10h-42.2c-3.3,0-6-0.8-8.2-2.4S638.5,484.3,638.5,482.1z M664.1,467.4h22.5c12.9,0,19.3-7.2,19.3-21.7v-3.2
	c0-7.4-1.7-12.8-5-16.1c-3.2-3.3-8-5-14.3-5h-22.5V467.4z M664.1,401.1h22.3c5.2,0,9.1-1.5,11.7-4.6c2.8-3.1,4.2-7.2,4.2-12.5
	c0-5.2-1.5-9.2-4.4-12.1c-2.8-3.1-6.7-4.6-11.7-4.6h-22.1V401.1z"/>
<path class="st0" d="M740.1,479.4c0-0.3,0.1-0.9,0.4-2l38.4-125.3c0.8-2.8,2.7-4.9,5.8-6.4c3.2-1.6,6.8-2.4,10.8-2.4
	c4,0,7.6,0.8,10.8,2.4c3.2,1.5,5.2,3.6,6,6.4l38.4,125.3c0.3,1.1,0.4,1.7,0.4,2c0,2.9-1.8,5.4-5.4,7.6s-7.2,3.2-11,3.2
	c-4.9,0-7.8-1.7-8.8-5.2l-7.6-26.5h-45.6l-7.6,26.5c-0.9,3.5-3.8,5.2-8.8,5.2c-3.8,0-7.6-1-11.2-3
	C741.8,485,740.1,482.4,740.1,479.4z M778.1,438.1h34.6L795.5,377L778.1,438.1z"/>
<path class="st0" d="M864.8,482V352.7c0-2.7,1.3-4.6,3.8-6c2.5-1.5,5.6-2.2,9.2-2.2c4.8,0,8.4,0.9,11,2.6c2.5,1.7,5.3,5.4,8.4,11.2
	l38.4,74.3v-80.1c0-2.7,1.3-4.6,3.8-6c2.5-1.3,5.6-2,9.2-2c3.6,0,6.6,0.7,9.2,2c2.5,1.3,3.8,3.3,3.8,6V482c0,2.5-1.3,4.5-4,6
	c-2.5,1.5-5.5,2.2-9,2.2c-7,0-12-2.7-14.9-8.2l-42.8-80.1V482c0,2.5-1.3,4.5-4,6c-2.5,1.5-5.5,2.2-9,2.2c-3.6,0-6.6-0.7-9.2-2.2
	C866.1,486.5,864.8,484.5,864.8,482z"/>
<path class="st0" d="M985.4,482V352.5c0-2.7,1.3-4.6,3.8-6c2.5-1.3,5.6-2,9.2-2c3.6,0,6.6,0.7,9.2,2c2.5,1.3,3.8,3.3,3.8,6v54.4
	l43-58.5c1.9-2.5,4.2-3.8,7.2-3.8c3.3,0,6.6,1.5,10,4.4c3.3,2.8,5,5.8,5,9c0,2-0.5,3.7-1.6,5l-35.6,44.6l43.4,66.1
	c0.9,1.3,1.4,2.9,1.4,4.6c0,3.2-1.7,6.2-5,9c-3.2,2.7-6.7,4-10.6,4c-4,0-7-1.7-9-5l-37.4-56.8l-10.8,13.5v39c0,2.5-1.3,4.5-4,6
	c-2.5,1.5-5.5,2.2-9,2.2c-3.6,0-6.6-0.7-9.2-2.2S985.4,484.5,985.4,482z"/>
<path class="st0" d="M339.6,342.7c-9.5,35.3-21.2,64.8-35.3,88.2c-13.7,23.3-30.2,39.7-49.5,49.2c-18.9,9.3-41.1,10.6-66.6,3.8
	c-35.9-9.6-58.3-31.7-67.3-66.4c-8.7-34.6-6-78.3,8.2-131.2c9.6-35.6,21.2-65.2,35-88.8c13.8-23.6,30.1-40,49-49.3
	c19.2-9.3,41.3-10.5,66.1-3.9c36.1,9.7,58.8,31.7,67.8,66.1C356.6,244.6,354.1,288.7,339.6,342.7z M270.9,175.9
	c-22-5.9-40.8-0.3-56.6,16.8c-15.4,16.9-29,44.7-41,83.4l132.7,35.6c9-39.5,11-70.5,5.8-92.8C306.8,196.2,293.1,181.9,270.9,175.9z
	 M196.8,452.4c22.6,6,42,0,58.3-18.2c16.3-18.2,30.6-48.3,42.8-90.4l-133.2-35.7c-10.6,41.9-13.7,74.9-9.3,99
	C160.1,431.2,173.9,446.3,196.8,452.4z"/>
</svg>
