<svg width="200" height="73" viewBox="0 0 200 73" fill="none" xmlns="http://www.w3.org/2000/svg">
<path d="M60.4047 28.5975C60.4047 27.994 60.5967 27.3768 60.9808 26.7458L73.2015 4.69081H62.7912C62.27 4.69081 61.8586 4.47136 61.5568 4.03245C61.2825 3.56611 61.1453 3.00376 61.1453 2.3454C61.1453 1.71448 61.2825 1.16584 61.5568 0.699505C61.8311 0.233168 62.2426 0 62.7912 0H78.4273C79.4971 0 80.032 0.480053 80.032 1.44016C80.032 2.04366 79.8263 2.6883 79.4148 3.37409L67.2352 25.388H79.0856C79.5794 25.388 79.9772 25.6349 80.2789 26.1286C80.6081 26.595 80.7727 27.1299 80.7727 27.7334C80.7727 28.3369 80.6081 28.8855 80.2789 29.3793C79.9772 29.8456 79.5794 30.0788 79.0856 30.0788H62.0094C60.9396 30.0788 60.4047 29.585 60.4047 28.5975Z" fill="#1D3557"/>
<path d="M83.7954 28.3917V1.68704C83.7954 1.16584 84.0286 0.754368 84.4949 0.452621C84.9613 0.150874 85.5099 0 86.1408 0H100.789C101.338 0 101.749 0.233168 102.024 0.699505C102.325 1.16584 102.476 1.70076 102.476 2.30426C102.476 2.96262 102.325 3.52496 102.024 3.9913C101.722 4.45764 101.311 4.69081 100.789 4.69081H89.1446V12.9203H95.399C95.9202 12.9203 96.3317 13.1398 96.6334 13.5787C96.9352 13.9901 97.086 14.4839 97.086 15.06C97.086 15.5812 96.9352 16.0612 96.6334 16.5001C96.3591 16.9116 95.9476 17.1173 95.399 17.1173H89.1446V25.388H100.789C101.311 25.388 101.722 25.6211 102.024 26.0875C102.325 26.5538 102.476 27.1162 102.476 27.7745C102.476 28.378 102.325 28.9129 102.024 29.3793C101.749 29.8456 101.338 30.0788 100.789 30.0788H86.1408C85.5099 30.0788 84.9613 29.9279 84.4949 29.6262C84.0286 29.3244 83.7954 28.9129 83.7954 28.3917Z" fill="#1D3557"/>
<path d="M105.615 28.3917V1.6459C105.615 1.20699 105.779 0.822948 106.109 0.493768C106.438 0.164589 106.849 0 107.343 0H115.49C121.992 0 125.242 2.86661 125.242 8.59982C125.242 10.8492 124.748 12.6597 123.761 14.0313C122.801 15.4029 121.498 16.3355 119.852 16.8293L125.242 26.8281C125.379 26.9927 125.448 27.2122 125.448 27.4865C125.448 28.1723 125.091 28.8169 124.378 29.4204C123.665 29.9965 122.91 30.2845 122.115 30.2845C121.319 30.2845 120.702 29.8593 120.263 29.009L114.42 17.6523H110.964V28.3917C110.964 28.9129 110.703 29.3244 110.182 29.6262C109.661 29.9279 109.03 30.0788 108.289 30.0788C107.576 30.0788 106.945 29.9279 106.397 29.6262C105.875 29.3244 105.615 28.9129 105.615 28.3917ZM110.964 13.4552H115.49C118.425 13.4552 119.893 12.0013 119.893 9.09359C119.893 6.1584 118.425 4.69081 115.49 4.69081H110.964V13.4552Z" fill="#1D3557"/>
<path d="M128.753 20.9029V9.42277C128.753 6.1584 129.617 3.77185 131.345 2.26311C133.1 0.754369 135.446 0 138.381 0C141.316 0 143.662 0.754369 145.417 2.26311C147.173 3.77185 148.051 6.1584 148.051 9.42277V20.9029C148.051 24.1673 147.173 26.5538 145.417 28.0626C143.662 29.5713 141.316 30.3257 138.381 30.3257C135.446 30.3257 133.1 29.5713 131.345 28.0626C129.617 26.5538 128.753 24.1673 128.753 20.9029ZM134.102 20.9029C134.102 24.0575 135.528 25.6349 138.381 25.6349C141.261 25.6349 142.702 24.0575 142.702 20.9029V9.42277C142.702 6.26813 141.261 4.69081 138.381 4.69081C135.528 4.69081 134.102 6.26813 134.102 9.42277V20.9029Z" fill="#1D3557"/>
<path d="M107.945 70.8662V44.1204C107.945 43.5992 108.179 43.1877 108.645 42.8859C109.111 42.5842 109.66 42.4333 110.291 42.4333H118.232C123.746 42.4333 126.503 44.8473 126.503 49.6753C126.503 53.0219 125.337 55.2027 123.005 56.2177C124.404 56.7663 125.461 57.5481 126.174 58.5631C126.887 59.5507 127.244 61.0045 127.244 62.9247V63.7888C127.244 66.8338 126.503 69.0557 125.022 70.4547C123.54 71.8263 121.538 72.5121 119.014 72.5121H110.291C109.605 72.5121 109.043 72.3475 108.604 72.0183C108.165 71.6891 107.945 71.3051 107.945 70.8662ZM113.253 67.8213H117.903C120.564 67.8213 121.894 66.3263 121.894 63.3362V62.6779C121.894 61.1417 121.552 60.0307 120.866 59.3449C120.207 58.6591 119.22 58.3162 117.903 58.3162H113.253V67.8213ZM113.253 54.1192H117.862C118.932 54.1192 119.741 53.8037 120.29 53.1728C120.866 52.5419 121.154 51.6778 121.154 50.5805C121.154 49.5107 120.852 48.674 120.249 48.0705C119.672 47.4396 118.863 47.1241 117.821 47.1241H113.253V54.1192Z" fill="#1D3557"/>
<path d="M128.952 70.2901C128.952 70.2353 128.98 70.0981 129.034 69.8787L136.976 43.9969C137.141 43.4208 137.538 42.9819 138.169 42.6802C138.828 42.351 139.568 42.1864 140.391 42.1864C141.214 42.1864 141.955 42.351 142.613 42.6802C143.271 42.9819 143.683 43.4208 143.848 43.9969L151.789 69.8787C151.844 70.0981 151.871 70.2353 151.871 70.2901C151.871 70.8936 151.501 71.4148 150.76 71.8537C150.02 72.2926 149.265 72.5121 148.497 72.5121C147.482 72.5121 146.879 72.1555 146.687 71.4423L145.123 65.9697H135.7L134.137 71.4423C133.945 72.1555 133.341 72.5121 132.326 72.5121C131.531 72.5121 130.763 72.3064 130.022 71.8949C129.309 71.456 128.952 70.9211 128.952 70.2901ZM136.811 61.7726H143.971L140.391 49.1403L136.811 61.7726Z" fill="#1D3557"/>
<path d="M154.719 70.8251V44.1204C154.719 43.5717 154.979 43.1602 155.5 42.8859C156.022 42.5842 156.652 42.4333 157.393 42.4333C158.381 42.4333 159.135 42.6116 159.656 42.9682C160.177 43.3248 160.753 44.0929 161.384 45.2725L169.326 60.6205V44.0792C169.326 43.5306 169.586 43.1191 170.108 42.8448C170.629 42.5705 171.26 42.4333 172 42.4333C172.741 42.4333 173.372 42.5705 173.893 42.8448C174.414 43.1191 174.675 43.5306 174.675 44.0792V70.8251C174.675 71.3463 174.401 71.7577 173.852 72.0595C173.331 72.3612 172.714 72.5121 172 72.5121C170.547 72.5121 169.518 71.9498 168.914 70.8251L160.068 54.2838V70.8251C160.068 71.3463 159.793 71.7577 159.245 72.0595C158.724 72.3612 158.106 72.5121 157.393 72.5121C156.652 72.5121 156.022 72.3612 155.5 72.0595C154.979 71.7577 154.719 71.3463 154.719 70.8251Z" fill="#1D3557"/>
<path d="M179.632 70.8251V44.0792C179.632 43.5306 179.893 43.1191 180.414 42.8448C180.935 42.5705 181.566 42.4333 182.307 42.4333C183.047 42.4333 183.678 42.5705 184.199 42.8448C184.721 43.1191 184.981 43.5306 184.981 44.0792V55.3125L193.869 43.2151C194.253 42.6939 194.747 42.4333 195.35 42.4333C196.036 42.4333 196.722 42.7351 197.408 43.3386C198.093 43.9146 198.436 44.5318 198.436 45.1902C198.436 45.6017 198.327 45.9446 198.107 46.2189L190.742 55.4359L199.712 69.0969C199.904 69.3712 200 69.6866 200 70.0433C200 70.7016 199.657 71.3188 198.971 71.8949C198.313 72.4435 197.586 72.7178 196.79 72.7178C195.968 72.7178 195.35 72.3749 194.939 71.6891L187.203 59.9621L184.981 62.7602V70.8251C184.981 71.3463 184.707 71.7577 184.158 72.0595C183.637 72.3612 183.02 72.5121 182.307 72.5121C181.566 72.5121 180.935 72.3612 180.414 72.0595C179.893 71.7577 179.632 71.3463 179.632 70.8251Z" fill="#1D3557"/>
<path d="M46.1912 42.056C44.234 49.3603 41.8049 55.4382 38.9038 60.2898C36.0786 65.097 32.6725 68.4869 28.6856 70.4595C24.7745 72.3877 20.1898 72.6473 14.9314 71.2383C7.52179 69.253 2.88725 64.6791 1.02775 57.5167C-0.771992 50.3704 -0.208025 41.3341 2.71965 30.4078C4.693 23.0432 7.10035 16.9271 9.94169 12.0595C12.783 7.19194 16.1592 3.79404 20.0703 1.86579C24.0411 -0.0464347 28.5959 -0.314067 33.7348 1.0629C41.2042 3.0643 45.8767 7.616 47.7523 14.718C49.7039 21.7756 49.1836 30.8883 46.1912 42.056ZM31.9879 7.58242C27.4466 6.36557 23.5504 7.52139 20.2993 11.0499C17.1241 14.534 14.3035 20.2806 11.8372 28.2895L39.2646 35.6387C41.1333 27.4696 41.5339 21.0746 40.4665 16.4537C39.4152 11.7724 36.589 8.81529 31.9879 7.58242ZM16.6783 64.7188C21.3391 65.9677 25.3573 64.7152 28.7328 60.9612C32.1084 57.2073 35.0585 50.9778 37.5831 42.2728L10.0661 34.8996C7.87256 43.564 7.23112 50.3797 8.14175 55.3468C9.11215 60.3299 11.9576 63.4539 16.6783 64.7188Z" fill="#1D3557"/>
</svg>
