<svg width="648" height="585" viewBox="0 0 648 585" fill="none" xmlns="http://www.w3.org/2000/svg">
<path d="M192.571 406.703C186.281 406.682 180.019 405.872 173.931 404.292L172.731 403.96L171.618 403.402C131.376 383.226 97.4261 356.575 70.7109 324.191C48.5964 297.226 31.3549 266.611 19.7618 233.721C5.89817 194.343 -0.771578 152.794 0.0709209 111.056C0.0879209 110.18 0.102308 109.504 0.102308 109.038C0.102308 88.7484 11.3643 70.9462 28.7935 63.684C42.133 58.1258 163.249 8.37872 172 4.78435C188.48 -3.47337 206.062 3.41899 208.875 4.62428C215.186 7.20453 327.151 52.9993 351.346 64.5205C376.282 76.3946 382.935 97.7262 382.935 108.458C382.935 157.047 374.52 202.456 357.924 243.426C344.52 276.588 325.524 307.203 301.761 333.937C255.915 385.53 210.056 403.821 209.613 403.982C204.132 405.868 198.366 406.788 192.571 406.703ZM181.786 379.989C185.762 380.881 194.916 382.218 200.882 380.041C208.461 377.277 246.844 357.373 282.712 317.009C332.269 261.24 357.415 191.134 357.451 108.638C357.363 106.966 356.176 95.0458 340.39 87.529C316.664 76.2306 200.286 28.6441 199.113 28.1645L198.792 28.0282C196.353 27.0062 188.591 24.8534 183.241 27.6571L182.17 28.1566C180.873 28.6894 52.3067 81.4941 38.595 87.2072C29.0034 91.2037 25.5859 101.105 25.5859 109.038C25.5859 109.617 25.5709 110.461 25.5497 111.551C24.4538 167.998 37.516 306.897 181.786 379.989Z" fill="#3F3D56"/>
<path d="M177.329 16.3701C177.329 16.3701 47.5942 69.6539 33.6941 75.4456C19.7939 81.2373 12.8438 95.1374 12.8438 109.038C12.8438 122.938 2.41878 304.316 177.329 392.012C177.329 392.012 193.203 396.404 205.247 392.012C217.292 387.619 370.193 313.485 370.193 108.458C370.193 108.458 370.193 87.6082 345.868 76.0248C321.542 64.4413 203.934 16.3701 203.934 16.3701C203.934 16.3701 189.491 9.99919 177.329 16.3701Z" fill="#A8DADC"/>
<path opacity="0.1" d="M191.229 58.0704V342.321C191.229 342.321 60.3366 279.314 61.4949 113.671L191.229 58.0704Z" fill="black"/>
<path d="M192.936 262.365L151.24 208.753L175.488 189.894L195.231 215.278L261.926 144.872L284.229 166.003L192.936 262.365Z" fill="white"/>
<path d="M547.211 569.021L562.676 569.02L570.034 509.367L547.208 509.368L547.211 569.021Z" fill="#FFB8B8"/>
<path d="M543.266 563.971L573.723 563.97H573.724C578.872 563.97 583.809 566.015 587.449 569.655C591.089 573.295 593.134 578.232 593.134 583.38V584.011L543.267 584.012L543.266 563.971Z" fill="#2F2E41"/>
<path d="M599.211 569.021L614.676 569.02L622.034 509.367L599.208 509.368L599.211 569.021Z" fill="#FFB8B8"/>
<path d="M595.266 563.971L625.723 563.97H625.724C630.872 563.97 635.809 566.015 639.449 569.655C643.089 573.295 645.134 578.232 645.134 583.38V584.011L595.267 584.012L595.266 563.971Z" fill="#2F2E41"/>
<path d="M571.519 359.534L575.229 548.784L545.218 546.923L524.398 426.381L517.822 344.192L571.519 359.534Z" fill="#2F2E41"/>
<path d="M623.023 327.755L627.229 551.784L592.229 550.784L584.669 417.614L571.518 369.397L517.822 344.192L526.589 283.921L605.49 282.825L623.023 327.755Z" fill="#2F2E41"/>
<path d="M562.681 127.216C577.503 127.216 589.519 115.2 589.519 100.378C589.519 85.5554 577.503 73.5396 562.681 73.5396C547.859 73.5396 535.843 85.5554 535.843 100.378C535.843 115.2 547.859 127.216 562.681 127.216Z" fill="#FFB8B8"/>
<path d="M584.941 138.522L589.052 144.75L600.011 175.433L591.244 294.879L539.739 295.976L533.165 158.995L546.938 141.779L584.941 138.522Z" fill="#CCCCCC"/>
<path d="M512.343 162.283L503.576 161.187C503.576 161.187 501.385 162.283 500.289 169.954C499.193 177.625 486.043 245.567 486.043 245.567L503.576 328.851L523.301 302.55L511.247 256.525L523.302 210.5L512.343 162.283Z" fill="#2F2E41"/>
<path d="M624.119 161.188H630.694L647.132 249.95L631.79 318.988L616.448 293.784L620.831 266.388L618.64 242.28L610.969 228.033L624.119 161.188Z" fill="#2F2E41"/>
<path d="M578.54 100.378L573.66 99.1579C573.66 99.1579 570 78.4192 561.461 80.8591C552.921 83.2989 530.963 85.7388 530.963 75.9794C530.963 66.22 551.702 57.6806 563.901 58.9005C576.1 60.1204 591.68 64.1675 595.619 82.0789C601.932 110.792 582.592 118.044 582.592 118.044L582.914 116.999C583.808 114.096 583.872 111.001 583.099 108.064C582.326 105.127 580.747 102.465 578.54 100.378Z" fill="#2F2E41"/>
<path d="M504.673 161.187L539.74 146.941L547.959 140.914L572.615 249.95L584.121 137.626L629.599 161.187L614.257 235.704L612.065 264.196L618.64 287.209C618.64 287.209 641.653 303.646 633.982 321.18C626.311 338.713 617.544 339.809 617.544 339.809C617.544 339.809 580.286 304.742 578.094 295.975C575.903 287.209 572.615 271.867 572.615 271.867C572.615 271.867 553.986 342.001 532.069 340.905C510.152 339.809 510.152 316.796 510.152 316.796L515.631 292.688L524.398 267.483L520.015 225.842L504.673 161.187Z" fill="#2F2E41"/>
</svg>
