<svg width="831" height="633" viewBox="0 0 831 633" fill="none" xmlns="http://www.w3.org/2000/svg">
<path d="M712.922 501.087C712.922 506.599 680.812 522.669 642.67 522.669C604.528 522.669 574.809 506.599 574.809 501.087C574.809 495.575 605.724 497.35 643.903 497.35C682.082 497.35 712.922 495.565 712.922 501.087Z" fill="#504F60"/>
<path opacity="0.2" d="M712.922 501.087C712.922 506.599 680.812 522.669 642.67 522.669C604.528 522.669 574.809 506.599 574.809 501.087" fill="black"/>
<path d="M328.805 399.941C334.995 400.735 341.419 401.239 347.348 399.315C348.282 399.025 349.309 398.38 349.215 397.446C349.149 397.107 349.005 396.787 348.795 396.512C346.56 393.158 344.683 389.579 343.193 385.833C343.134 385.638 343.013 385.467 342.848 385.347C342.655 385.277 342.443 385.277 342.25 385.347C339.514 386.067 337.152 387.832 334.435 388.589C333.05 388.969 331.604 389.077 330.177 388.907C328.945 388.767 327.264 387.748 326.144 387.879C326.778 391.962 328.328 395.774 328.805 399.941Z" fill="#CCCCCC"/>
<path d="M445.882 389.598C449.963 386.795 454.192 383.852 456.601 379.526C456.773 379.268 456.873 378.968 456.891 378.658C456.85 378.352 456.731 378.063 456.545 377.817C454.251 374.167 451.296 370.976 447.834 368.408C446.027 369.685 444.395 371.193 442.979 372.893C441.951 373.977 439.113 375.696 439.085 377.35C439.085 378.284 440.168 379.368 440.672 380.153C441.354 381.162 441.998 382.189 442.614 383.236C442.969 383.75 446.209 389.393 445.882 389.598Z" fill="#CCCCCC"/>
<path d="M353.072 412.451C353.145 413.413 352.881 414.371 352.325 415.16C351.889 415.599 351.35 415.92 350.756 416.095C342.101 419.196 332.082 415.328 323.445 418.384C321.671 419.01 319.991 419.916 318.207 420.514C316.081 421.153 313.888 421.542 311.671 421.672C308.618 421.962 305.546 422.149 302.484 422.233C300.157 422.398 297.818 422.193 295.556 421.626C294.424 421.336 293.366 420.811 292.451 420.085C291.535 419.359 290.783 418.448 290.243 417.412C289.773 416.483 289.68 415.409 289.981 414.413C290.117 414.071 290.309 413.755 290.551 413.479C291.136 412.822 291.824 412.263 292.586 411.825L295.77 409.769C297.263 408.713 298.886 407.853 300.598 407.209C301.858 406.798 303.193 406.621 304.472 406.275C308.945 404.967 312.362 401.417 315.537 398.007L319.869 393.382C320.274 392.873 320.788 392.461 321.373 392.177C321.973 391.976 322.612 391.916 323.24 391.999C327.448 392.3 331.512 393.663 335.051 395.961C335.956 396.64 336.933 397.216 337.965 397.68C340.504 398.67 343.763 397.923 346.106 396.671C347.218 396.073 346.975 395.736 347.442 394.671C347.909 393.606 349.048 392.924 350.037 393.896C350.336 394.232 350.548 394.636 350.654 395.073C351.587 398.156 351.233 401.473 351.233 404.706C351.205 405.211 351.268 405.717 351.419 406.2C351.658 406.688 351.942 407.151 352.269 407.583C352.335 407.698 352.395 407.816 352.446 407.938C353.018 409.369 353.232 410.918 353.072 412.451Z" fill="#514E7F"/>
<path d="M353.072 412.451C353.145 413.413 352.881 414.371 352.325 415.16C351.889 415.599 351.35 415.92 350.756 416.095C342.101 419.196 332.082 415.328 323.445 418.384C321.671 419.01 319.991 419.916 318.207 420.514C316.081 421.153 313.888 421.542 311.671 421.672C308.618 421.962 305.546 422.149 302.484 422.233C300.157 422.398 297.818 422.193 295.556 421.626C294.424 421.336 293.366 420.811 292.451 420.085C291.535 419.359 290.783 418.448 290.243 417.412C289.773 416.483 289.68 415.409 289.981 414.413C290.117 414.071 290.309 413.755 290.551 413.479C291.055 414.534 291.419 415.936 291.737 416.44C292.166 417.188 292.749 417.836 293.448 418.34C294.146 418.844 294.945 419.193 295.789 419.365C297.053 419.442 298.32 419.281 299.524 418.888C307.367 416.945 315.705 416.917 323.24 413.974C325.826 412.955 328.291 411.601 331.008 410.984C333.726 410.367 336.611 410.536 339.412 410.302C343.838 409.947 348.123 408.611 352.484 407.91C353.047 409.353 353.249 410.912 353.072 412.451Z" fill="#464353"/>
<path d="M465.705 389.028C465.294 392.317 463.212 395.148 460.924 397.549C458.637 399.95 456.05 402.108 454.23 404.874C451.989 408.303 450.98 412.554 448.067 415.45C446.949 416.503 445.693 417.399 444.332 418.113C442.809 419.012 441.198 419.754 439.524 420.327C435.173 421.719 430.486 421.401 425.938 421.065C424.462 421.051 423.001 420.769 421.625 420.234C420.998 419.915 420.399 419.546 419.832 419.131C418.692 418.429 417.733 417.469 417.031 416.328C416.686 415.708 416.589 414.98 416.76 414.291C417.02 413.533 417.466 412.852 418.058 412.311C419.081 411.246 420.179 410.256 421.345 409.349C422.943 408.317 424.384 407.058 425.621 405.612C426.38 404.469 426.939 403.205 427.274 401.875C427.935 399.544 428.339 397.147 428.478 394.727C428.473 393.12 428.639 391.516 428.973 389.944C429.664 387.477 431.494 385.272 431.289 382.722C431.205 382.357 431.238 381.974 431.382 381.629C431.599 381.358 431.902 381.171 432.241 381.096C433.668 380.527 435.173 380.177 436.704 380.059C437.472 380.006 438.243 380.124 438.96 380.405C439.676 380.687 440.322 381.124 440.85 381.685C441.485 382.451 441.905 383.553 442.838 383.852C443.301 383.979 443.787 383.998 444.258 383.908C446.555 383.675 448.982 383.385 450.794 381.9C451.631 381.148 452.304 380.232 452.77 379.207C453.236 378.183 453.485 377.073 453.501 375.948C453.501 375.098 453.119 374.21 454.435 374.08C455.425 373.949 456.209 375.014 456.713 375.668C458.534 378.106 460.402 380.657 461.083 383.628C461.348 383.525 461.63 383.471 461.914 383.469C462.496 383.464 463.071 383.6 463.59 383.865C464.109 384.13 464.556 384.517 464.893 384.992C465.636 386.197 465.924 387.629 465.705 389.028Z" fill="#514E7F"/>
<path d="M465.705 389.028C465.295 392.317 463.212 395.148 460.925 397.549C458.637 399.95 456.051 402.108 454.23 404.874C451.989 408.303 450.981 412.554 448.068 415.45C446.949 416.503 445.693 417.399 444.333 418.113C442.809 419.012 441.198 419.754 439.524 420.327C435.173 421.719 430.486 421.401 425.939 421.065C424.463 421.051 423.001 420.769 421.625 420.234C420.999 419.915 420.399 419.546 419.832 419.131C418.693 418.429 417.733 417.469 417.031 416.328C417.906 415.907 418.861 415.678 419.832 415.656C421.849 415.768 423.324 417.674 425.257 418.262C428.012 419.094 430.757 417.15 433.549 416.487C435.369 416.057 437.283 416.169 439.085 415.553C440.587 414.972 441.975 414.131 443.184 413.068C444.842 411.881 446.318 410.459 447.563 408.845C448.598 407.23 449.459 405.511 450.131 403.715C451.605 400.274 453.341 396.951 455.323 393.774C455.616 393.272 455.97 392.807 456.378 392.392C456.816 391.99 457.311 391.71 457.806 391.355C459.674 389.944 460.449 387.618 461.102 385.338C461.279 384.645 461.526 383.972 461.84 383.329C462.422 383.324 462.997 383.46 463.516 383.725C464.034 383.99 464.481 384.377 464.818 384.852C465.622 386.086 465.938 387.574 465.705 389.028Z" fill="#464353"/>
<path d="M269.916 97.7352C272.24 99.4779 274.153 101.711 275.519 104.275C276.826 106.835 284.361 126.698 283.922 129.585C286.378 127.109 296.06 126.708 298.544 124.232C299.58 123.195 305.173 118.019 306.013 116.813C306.854 115.608 313.091 113.076 313.773 111.806C316.322 107.237 295.696 89.9246 298.338 85.412C298.485 85.2046 298.56 84.9556 298.553 84.7019C298.493 84.4889 298.373 84.2976 298.208 84.1507C296.518 82.4222 294.277 81.3478 292.241 80.0678C290.206 78.7878 288.245 77.0033 287.694 74.6489C285.753 75.543 283.971 76.7486 282.419 78.2179C278.634 81.463 274.915 84.7735 271.261 88.1494C269.832 89.4761 267.069 91.2419 266.406 93.1385C265.621 95.1753 268.553 96.6234 269.916 97.7352Z" fill="#A1616A"/>
<path d="M303.305 90.3823C300.141 92.5102 297.183 94.9313 294.472 97.6137C291.914 100.146 289.486 103.079 288.87 106.62C288.609 108.012 288.646 109.423 288.431 110.834C287.497 116.954 282.213 121.438 279.878 127.165C279.202 128.933 278.705 130.764 278.394 132.631C277.738 136.17 277.379 139.758 277.32 143.357C277.264 146.841 280.681 149.243 281.933 152.494C283.184 155.745 283.52 159.09 284.155 162.425C285.35 168.723 287.544 174.795 289.757 180.831C294.36 193.556 309.281 228.732 313.884 241.466C327.992 237.925 365.546 229.788 378.039 222.323C382.203 219.838 349.141 191.8 353.595 189.866C353.849 189.826 354.091 189.728 354.301 189.578C354.511 189.429 354.684 189.233 354.805 189.006C354.926 188.778 354.993 188.526 355 188.268C355.007 188.01 354.954 187.754 354.846 187.52C350.392 168.031 336.461 152.017 330.14 133.042C327.946 126.455 324.005 120.831 321.018 114.571C318.31 108.9 316.863 102.631 313.623 97.24C313.012 96.1294 312.212 95.1335 311.26 94.297C310.452 93.677 309.579 93.1475 308.655 92.7181C306.806 91.8211 305.088 91.2886 303.305 90.3823Z" fill="#514E7F"/>
<path d="M270.663 95.5209C282.859 95.5209 292.745 85.6282 292.745 73.4249C292.745 61.2217 282.859 51.329 270.663 51.329C258.468 51.329 248.581 61.2217 248.581 73.4249C248.581 85.6282 258.468 95.5209 270.663 95.5209Z" fill="#A1616A"/>
<path d="M293.128 83.805C294.228 82.7893 295.611 82.1313 297.093 81.9178C298.575 81.7043 300.086 81.9453 301.429 82.6091C302.923 83.3846 304.23 84.9542 303.894 86.5985L314.846 86.7667C316.589 86.719 318.332 86.8789 320.037 87.2432C321.754 87.6171 323.286 88.5786 324.37 89.962C324.5 90.1395 324.65 90.3544 324.874 90.3824C325.056 90.3852 325.234 90.3259 325.378 90.2142C327.063 89.3687 328.961 89.0435 330.831 89.2799C336.751 89.663 342.222 92.6247 346.863 96.3245C347.7 96.9001 348.349 97.7091 348.73 98.6509C349.113 99.8935 348.656 101.454 349.664 102.341C349.664 112.618 353.193 122.223 355.546 132.239C355.966 134.023 357.675 135.602 358.861 137.003C360.326 138.557 361.522 140.344 362.4 142.292C364.398 147.486 361.643 153.596 363.585 158.81C364.407 161.015 365.994 162.827 367.32 164.743C369.068 166.954 370.173 169.605 370.514 172.404C370.598 173.656 370.439 174.917 370.514 176.141C370.639 177.824 370.952 179.488 371.447 181.102C372.244 184.117 373.078 187.128 373.95 190.137C375.369 194.995 377.218 200.236 381.569 202.824C371.064 204.609 359.991 206.356 349.981 202.703C348.585 202.226 347.26 201.563 346.041 200.731C342.428 198.153 340.682 193.743 339.122 189.576C337.386 184.905 335.621 180.149 335.266 175.179C335.27 173.598 335.046 172.025 334.603 170.507C333.585 167.798 330.868 166.163 328.403 164.658C325.62 163.132 323.098 161.17 320.934 158.847C319.86 157.677 319.037 156.299 318.517 154.798C317.997 153.297 317.789 151.705 317.909 150.121C318.095 148.579 318.702 147.094 318.758 145.543C318.814 143.992 318.123 142.217 316.639 141.806C308.992 139.489 305.341 130.426 303.641 122.615C302.908 118.579 302.58 114.478 302.661 110.376L302.558 102.407C301.503 101.446 300.654 100.281 300.064 98.9811C299.473 97.6817 299.153 96.2755 299.122 94.8483C299.224 94.0156 299.208 93.1728 299.076 92.3444C298.706 91.3319 298.105 90.42 297.32 89.6817C295.632 87.9478 294.218 85.9661 293.128 83.805Z" fill="#464353"/>
<path d="M269.608 109.068C269.356 111.535 269.916 114.067 269.365 116.486C269.15 117.421 268.777 118.355 268.506 119.224C267.678 122.707 268.036 126.367 269.524 129.623C271.009 132.847 272.788 135.927 274.837 138.825C275.53 139.815 276.1 140.884 276.536 142.011C276.889 143.194 277.108 144.413 277.19 145.646C277.73 150.593 278.597 155.5 279.785 160.333C280.831 164.518 292.708 200.302 295.472 203.618C295.973 204.353 296.734 204.87 297.6 205.066C298.226 205.09 298.847 204.962 299.412 204.693L305.014 202.544C305.49 202.398 305.932 202.156 306.312 201.834C306.837 201.22 307.122 200.437 307.115 199.629C307.516 195.07 295.612 159.034 294.099 154.727C289.524 141.722 283.436 129.183 280.458 115.72C279.627 111.983 279.188 106.228 276.452 103.248C275.322 102.014 275.705 102.537 274.351 103.182C273.667 103.479 273.005 103.826 272.372 104.219C271.579 104.77 270.92 105.492 270.442 106.331C269.963 107.17 269.679 108.105 269.608 109.068Z" fill="#464353"/>
<path d="M286.61 133.743C288.114 141.694 289.664 149.626 291.204 157.577L313.128 151.831C313.305 149.532 312.082 147.402 311.26 145.291C309.262 140.274 309.215 134.686 307.6 129.529C306.377 125.605 304.248 121.999 303.1 118.047C302.437 115.748 302.101 113.375 301.447 111.049C300.746 108.764 299.885 106.532 298.87 104.369C297.639 101.231 296.034 98.2542 294.089 95.5023C291.288 96.5487 288.3 97.7633 286.704 100.295C285.885 101.722 285.418 103.323 285.341 104.967C284.958 109.89 286.741 114.842 286.153 119.738C285.547 124.4 285.702 129.13 286.61 133.743Z" fill="#CCCCCC"/>
<path d="M313.492 239.504C314.724 244.176 312.941 249.09 311.484 253.715C309.291 260.681 307.796 267.848 307.021 275.11C306.926 276.958 306.555 278.782 305.919 280.52C305.228 282.08 304.052 283.397 303.249 284.883C301.045 288.788 301.101 293.553 301.578 298.019C301.895 300.962 302.371 303.896 302.96 306.792C303.678 310.333 304.565 314.033 303.529 317.49C305.266 317.107 306.442 319.358 306.33 321.124C306.218 322.89 305.649 324.861 306.498 326.384C308.646 327.169 308.664 330.121 308.599 332.41C308.635 336.379 309.136 340.33 310.093 344.182C313.342 359.816 316.791 375.406 320.438 390.953C328.328 393.401 337.544 395.951 345.07 392.56C346.47 391.934 347.871 390.934 348.188 389.421C348.27 388.605 348.168 387.781 347.889 387.01L344.323 374.024C343.454 370.884 342.586 367.642 343.044 364.419C343.389 362.018 344.435 359.43 343.258 357.309C342.857 356.58 342.222 356.01 341.755 355.319C339.888 352.582 340.868 348.919 341.017 345.602C341.076 344.858 341.025 344.109 340.868 343.379C340.612 342.526 340.255 341.708 339.804 340.94C336.856 335.214 335.44 328.822 335.695 322.385C335.807 321.564 335.694 320.728 335.368 319.966C335.142 319.651 334.939 319.32 334.762 318.975C334.622 318.375 334.692 317.746 334.958 317.191C333.888 316.378 332.922 315.437 332.082 314.388C332.6 314.066 333.038 313.63 333.363 313.114C333.688 312.597 333.891 312.014 333.958 311.407C334.024 310.801 333.952 310.187 333.747 309.613C333.542 309.038 333.208 308.518 332.773 308.091C333.154 308.014 333.506 307.833 333.79 307.568C334.074 307.303 334.279 306.965 334.383 306.59C334.486 306.215 334.484 305.819 334.376 305.446C334.268 305.073 334.059 304.737 333.772 304.475C333.314 304.157 332.707 304.017 332.381 303.541C331.876 302.849 332.287 301.887 332.698 301.149L334.874 297.216C336.498 294.291 336.862 290.676 338.608 287.873C341.111 283.79 342.745 279.24 344.36 274.737L350.644 257.387L354.874 261.059C356.282 262.135 357.463 263.482 358.347 265.02C358.948 266.54 359.329 268.138 359.477 269.766C361.027 279.184 366.946 287.349 369.141 296.627C369.626 298.692 369.953 300.859 371.139 302.625C371.563 303.167 371.944 303.742 372.278 304.344C372.587 305.263 372.748 306.225 372.754 307.194C372.95 309.091 373.552 310.925 374.518 312.569C375.485 314.213 376.794 315.63 378.356 316.724C380.438 318.153 383.025 319.134 384.155 321.395C384.381 322.095 384.694 322.764 385.088 323.385C386.097 324.6 388.272 324.74 388.702 326.263C388.945 327.113 388.496 328.131 388.973 328.879C389.243 329.225 389.601 329.492 390.009 329.654L396.087 332.691C402.885 336.091 406.358 343.902 411.372 349.592C413.104 351.445 414.637 353.474 415.947 355.646C418.114 359.523 419.113 364.391 422.773 366.858C423.757 367.368 424.652 368.034 425.425 368.829C426.573 370.342 426.153 372.463 426.255 374.369C426.358 376.275 427.815 378.546 429.626 377.966C428.991 380.275 428.991 382.712 429.626 385.02C437.579 384.611 445.162 381.538 451.157 376.294C452.932 374.743 454.64 372.762 454.659 370.408C454.686 370.001 454.595 369.596 454.397 369.24C454.038 368.78 453.565 368.423 453.025 368.203C447.339 365.12 445.63 357.972 442.754 352.171C440.242 347.051 436.526 342.641 433.417 337.885C426.657 327.655 422.044 315.275 411.82 308.52C409.57 307.035 406.956 305.718 405.826 303.26C405.2 301.887 405.126 300.317 404.631 298.897C404.136 297.477 402.95 296.094 401.438 296.094C402.278 294.039 402.11 291.535 402.166 289.311C402.223 288.325 402.11 287.335 401.83 286.387C401.441 285.367 400.937 284.395 400.326 283.491C397.659 278.972 396.325 273.789 396.48 268.542C396.554 265.842 397.03 263.058 396.218 260.479C395.807 259.181 395.088 257.994 394.593 256.742C393.848 254.474 393.454 252.104 393.426 249.716L392.866 240.738C392.782 237.748 392.394 234.774 391.708 231.862C389.841 224.892 387.974 195.696 381.578 192.407C375.182 189.118 364.192 211.588 356.993 212.027C353.808 212.16 350.661 212.767 347.656 213.83C342.866 215.624 338.851 218.969 334.939 222.239L321.699 233.366C318.898 235.674 316.582 237.879 313.492 239.504Z" fill="#464353"/>
<path d="M249.944 48.8906C252.857 44.9105 257.862 42.799 262.792 42.6215C267.722 42.444 272.577 43.9949 276.994 46.1905C278.297 46.9322 279.691 47.5037 281.139 47.8909C283.474 48.3674 286.069 47.7321 288.18 48.8252C290.981 50.3107 291.522 54.0946 291.279 57.2338C291.037 60.373 290.448 63.8579 292.12 66.5767C292.713 67.3521 293.252 68.1668 293.735 69.0152C294.454 70.6315 294.034 72.5001 293.604 74.2098C292.512 73.2756 291.896 71.8648 290.925 70.781C289.954 69.6972 288.264 68.9685 287.059 69.7813C285.855 70.5941 285.873 72.0703 285.808 73.397C285.743 74.7237 285.406 76.312 284.155 76.7418C283.633 76.8608 283.086 76.8202 282.587 76.6253C282.088 76.4305 281.658 76.0903 281.354 75.6486C279.216 73.0326 280.075 68.8564 277.955 66.2217C276.751 64.7268 274.743 63.9981 273.632 62.4284C272.755 61.1952 272.531 59.6256 271.765 58.2989C270.999 56.9722 269.216 56.0005 268.03 56.9161C267.625 57.303 267.288 57.7545 267.031 58.2522C266.292 59.312 265.217 60.0913 263.98 60.4643C262.743 60.8373 261.417 60.7821 260.215 60.3076C259.297 59.7436 258.303 59.3127 257.264 59.0276C256.584 58.9936 255.908 59.1505 255.313 59.4807C254.717 59.8109 254.226 60.3012 253.894 60.8962C253.224 62.085 252.9 63.438 252.96 64.8015C252.96 66.6701 253.296 68.6602 252.232 70.155C251.827 70.7178 251.32 71.1995 250.738 71.5751C249.179 72.5748 247.003 73.2475 245.565 72.1077C245.078 71.6535 244.715 71.0815 244.512 70.4467C244.31 69.8118 244.274 69.1355 244.407 68.4826C244.687 67.1822 245.055 65.9024 245.509 64.652C246.331 61.7558 245.257 58.4951 246.153 55.767C247.092 53.31 248.368 50.9957 249.944 48.8906Z" fill="#464353"/>
<path d="M261.774 114.805C261.634 115.486 261.706 116.193 261.979 116.832C262.257 117.267 262.635 117.629 263.081 117.888C266.221 119.845 269.792 121.003 273.483 121.261C273.985 121.269 274.478 121.397 274.921 121.634C275.798 122.214 275.854 123.503 275.528 124.531C275.092 125.5 274.866 126.551 274.865 127.614C275.135 129.566 277.451 130.417 279.402 130.706C282.138 131.052 285.135 130.874 287.302 129.165C288.769 127.826 289.888 126.148 290.56 124.278C295.92 111.955 297.796 98.3331 303.221 86.0472C303.632 85.245 303.907 84.3798 304.034 83.4873C304.091 83.0405 304.028 82.5865 303.85 82.1724C303.673 81.7584 303.388 81.3995 303.025 81.1328C302.017 80.5069 300.448 80.8619 299.767 79.8809C299.43 79.3857 299.468 78.713 299.169 78.1898C298.543 77.078 296.9 77.2555 295.78 76.6109C294.902 76.1437 294.295 75.1814 293.315 74.9946C292.833 74.9674 292.352 75.0528 291.91 75.2442C291.467 75.4356 291.076 75.7276 290.766 76.097C287.582 79.0681 285.91 83.2817 284.136 87.2618C281.427 93.3626 278.256 99.2472 274.65 104.864C275.07 104.21 272.633 99.2581 271.681 99.0432C270.009 98.7068 267.871 101.641 266.965 102.734C264.123 106.182 262.322 110.369 261.774 114.805Z" fill="#CCCCCC"/>
<path opacity="0.1" d="M295.696 77.4799C295.025 77.491 294.366 77.653 293.766 77.9538C293.166 78.2547 292.642 78.6866 292.232 79.2176C291.233 80.5163 291.037 82.2354 290.785 83.8891C289.935 89.1283 288.066 94.1499 285.285 98.6695" fill="black"/>
<path opacity="0.1" d="M300.458 81.2076C299.532 81.2283 298.628 81.4898 297.834 81.9666C297.039 82.4433 296.383 83.1188 295.929 83.9264C295.311 85.396 294.927 86.9533 294.79 88.5418C293.99 92.0637 292.446 95.3734 290.262 98.2491" fill="black"/>
<path d="M522.362 263.861V252.257C522.36 243.715 518.967 235.524 512.93 229.485C506.892 223.445 498.705 220.052 490.168 220.052H32.1942C23.6574 220.052 15.4701 223.445 9.43277 229.485C3.39545 235.524 0.00247588 243.715 0 252.257V273.653L522.362 263.861Z" fill="#A8DADC"/>
<path d="M159.598 206.449C159.598 206.449 158.291 287.602 172.67 314.304C187.049 341.006 193.212 457.166 193.212 457.166C193.212 457.166 343.949 472.769 448.991 438.48C554.033 404.192 777.544 390.168 777.544 390.168L739.878 136.144C739.878 136.144 553.8 124.204 447.946 174.721C342.091 225.238 159.598 206.449 159.598 206.449Z" fill="#8DD070"/>
<path opacity="0.1" d="M159.598 206.449C159.598 206.449 158.291 287.602 172.67 314.304C187.049 341.006 193.212 457.166 193.212 457.166C193.212 457.166 343.949 472.769 448.991 438.48C554.033 404.192 777.544 390.168 777.544 390.168L739.878 136.144C739.878 136.144 553.8 124.204 447.946 174.721C342.091 225.238 159.598 206.449 159.598 206.449Z" fill="black"/>
<path d="M192.96 236.094C192.96 236.094 188.245 303.055 200.075 324.45C211.905 345.845 212.456 441.358 212.456 441.358C212.456 441.358 348.114 447.655 444.613 414.787C541.111 381.918 743.894 360.598 743.894 360.598L720.85 152.858C720.85 152.858 553.063 151.13 455.135 197.396C357.208 243.662 192.96 236.094 192.96 236.094Z" fill="#8DD070"/>
<path opacity="0.1" d="M453.646 376.751C472.948 374.346 484.415 338.815 479.259 297.391C474.102 255.967 454.275 224.337 434.973 226.742C415.671 229.148 404.204 264.679 409.36 306.103C414.516 347.526 434.344 379.157 453.646 376.751Z" fill="black"/>
<path opacity="0.2" d="M637.862 12.3972C637.862 12.3972 457.087 58.1774 371.84 138.76C286.592 219.342 107.134 257.499 107.134 257.499C107.134 257.499 130.775 335.129 152.643 356.132C174.51 377.135 215.985 485.811 215.985 485.811C215.985 485.811 364.23 454.363 453.679 389.449C543.128 324.534 751.597 242.55 751.597 242.55L637.862 12.3972Z" fill="black"/>
<path d="M104.417 245.876C104.417 245.876 128.049 323.516 149.897 344.519C171.746 365.521 213.24 474.189 213.24 474.189C213.24 474.189 361.503 442.75 450.962 377.835C540.42 312.921 748.87 230.965 748.87 230.965L635.135 0.783936C635.135 0.783936 454.37 46.5642 369.122 127.147C283.875 207.729 104.417 245.876 104.417 245.876Z" fill="#8DD070"/>
<path opacity="0.1" d="M104.417 245.876C104.417 245.876 128.049 323.516 149.897 344.519C171.746 365.521 213.24 474.189 213.24 474.189C213.24 474.189 361.503 442.75 450.962 377.835C540.42 312.921 748.87 230.965 748.87 230.965L635.135 0.783936C635.135 0.783936 454.37 46.5642 369.122 127.147C283.875 207.729 104.417 245.876 104.417 245.876Z" fill="black"/>
<path d="M145.229 263.852C145.229 263.852 161.279 329.037 179.103 345.761C196.928 362.485 226.722 453.205 226.722 453.205C226.722 453.205 357.759 417.533 439.524 356.618C521.288 295.702 707.768 213.232 707.768 213.232L622.138 22.5249C622.138 22.5249 461.923 72.388 382.904 146.496C303.884 220.604 145.229 263.852 145.229 263.852Z" fill="#8DD070"/>
<path opacity="0.1" d="M436.501 317.675C454.134 309.459 454.152 272.121 436.541 234.279C418.93 196.437 390.359 172.42 372.726 180.637C355.093 188.853 355.075 226.191 372.686 264.033C390.297 301.875 418.868 325.891 436.501 317.675Z" fill="black"/>
<path opacity="0.1" d="M534.724 275.25V597.58C534.724 601.241 534.004 604.866 532.603 608.248C531.203 611.63 529.151 614.703 526.563 617.291C523.976 619.879 520.904 621.931 517.524 623.332C514.144 624.732 510.521 625.452 506.863 625.45H27.871C20.4856 625.448 13.4037 622.51 8.18232 617.284C2.96099 612.058 0.0278316 604.97 0.027832 597.58V242.756C13.7533 247.857 13.7533 247.857 27.871 247.427H506.863C514.242 247.427 521.321 250.357 526.544 255.573C531.768 260.789 534.71 267.866 534.724 275.25Z" fill="black"/>
<path d="M534.724 279.352V601.682C534.722 609.074 531.785 616.163 526.561 621.39C521.336 626.616 514.25 629.552 506.863 629.552H27.871C20.4856 629.549 13.4037 626.612 8.18232 621.386C2.96099 616.159 0.0278316 609.072 0.027832 601.682V246.848C13.7533 251.94 13.7533 251.94 27.871 251.519H506.863C514.244 251.519 521.324 254.45 526.547 259.668C531.771 264.887 534.712 271.966 534.724 279.352Z" fill="#A8DADC"/>
<path opacity="0.1" d="M533.362 398.521V501.601H433.455C419.914 501.418 406.99 495.908 397.479 486.262C387.968 476.616 382.636 463.611 382.636 450.061C382.636 436.51 387.968 423.505 397.479 413.859C406.99 404.213 419.914 398.703 433.455 398.521H533.362Z" fill="black"/>
<path d="M534.725 395.774V498.873H434.818C421.277 498.69 408.353 493.18 398.842 483.534C389.331 473.888 383.999 460.883 383.999 447.333C383.999 433.782 389.331 420.777 398.842 411.131C408.353 401.485 421.277 395.975 434.818 395.793L534.725 395.774Z" fill="#1D3557"/>
<path opacity="0.1" d="M439.607 470.162C450.7 470.162 459.692 461.164 459.692 450.065C459.692 438.966 450.7 429.969 439.607 429.969C428.515 429.969 419.523 438.966 419.523 450.065C419.523 461.164 428.515 470.162 439.607 470.162Z" fill="black"/>
<path d="M440.971 467.434C452.063 467.434 461.055 458.436 461.055 447.337C461.055 436.238 452.063 427.241 440.971 427.241C429.879 427.241 420.887 436.238 420.887 447.337C420.887 458.436 429.879 467.434 440.971 467.434Z" fill="white"/>
<path d="M708.142 394.886C708.936 403.491 702.428 411.844 704.323 420.271C704.734 422.074 705.509 423.774 705.789 425.596C706.573 430.604 703.595 435.341 700.747 439.527L676.284 475.441C675.304 477.02 674.131 478.47 672.792 479.757C668.123 483.924 661.102 483.494 654.958 484.737C650.639 485.614 646.561 487.418 643.007 490.025C642.858 490.152 642.763 490.331 642.743 490.526C642.722 490.72 642.776 490.916 642.895 491.071C643.91 492.455 645.255 493.562 646.808 494.291C648.361 495.021 650.071 495.35 651.783 495.248C652.428 496.098 651.783 497.34 650.85 497.948C649.533 498.882 647.731 499.106 647.47 501.33C647.377 502.106 647.534 502.892 647.918 503.572C648.904 505.083 650.437 506.151 652.194 506.553C660.663 509.141 669.813 504.591 676.153 498.396C682.493 492.202 687.04 484.382 693.259 478.075C696.704 474.591 700.616 471.601 704.164 468.219C711.242 461.473 716.741 453.27 722.054 445.058C723.651 442.582 725.257 440.04 725.929 437.172C726.601 434.304 726.284 431.408 727.04 428.633C728.03 424.989 730.691 422.093 732.904 419.038C737.246 413.058 740.14 405.743 739.571 398.38C739.001 391.018 734.435 383.74 727.488 381.236C725.336 380.371 722.961 380.227 720.719 380.825C717.871 381.703 715.77 384.058 713.828 386.309L709.16 391.682C707.996 392.86 707.076 394.257 706.452 395.793C706.153 396.563 706.082 397.404 706.247 398.214C706.413 399.024 706.808 399.77 707.386 400.361" fill="#FBBEBE"/>
<path opacity="0.05" d="M708.142 394.886C708.936 403.491 702.428 411.844 704.323 420.271C704.734 422.074 705.509 423.774 705.789 425.596C706.573 430.604 703.595 435.341 700.747 439.527L676.284 475.441C675.304 477.02 674.131 478.47 672.792 479.757C668.123 483.924 661.102 483.494 654.958 484.737C650.639 485.614 646.561 487.418 643.007 490.025C642.858 490.152 642.763 490.331 642.743 490.526C642.722 490.72 642.776 490.916 642.895 491.071C643.91 492.455 645.255 493.562 646.808 494.291C648.361 495.021 650.071 495.35 651.783 495.248C652.428 496.098 651.783 497.34 650.85 497.948C649.533 498.882 647.731 499.106 647.47 501.33C647.377 502.106 647.534 502.892 647.918 503.572C648.904 505.083 650.437 506.151 652.194 506.553C660.663 509.141 669.813 504.591 676.153 498.396C682.493 492.202 687.04 484.382 693.259 478.075C696.704 474.591 700.616 471.601 704.164 468.219C711.242 461.473 716.741 453.27 722.054 445.058C723.651 442.582 725.257 440.04 725.929 437.172C726.601 434.304 726.284 431.408 727.04 428.633C728.03 424.989 730.691 422.093 732.904 419.038C737.246 413.058 740.14 405.743 739.571 398.38C739.001 391.018 734.435 383.74 727.488 381.236C725.336 380.371 722.961 380.227 720.719 380.825C717.871 381.703 715.77 384.058 713.828 386.309L709.16 391.682C707.996 392.86 707.076 394.257 706.452 395.793C706.153 396.563 706.082 397.404 706.247 398.214C706.413 399.024 706.808 399.77 707.386 400.361" fill="black"/>
<path d="M726.657 616.406C721.316 619.667 714.659 619.863 708.45 619.107C707.451 618.985 706.265 618.91 705.649 619.686C704.715 620.807 705.817 622.489 706.956 623.358C710.618 626.109 714.921 627.881 719.458 628.505C723.509 629.08 727.598 629.352 731.69 629.318C742.894 629.514 754.099 629.701 765.126 628.094C765.779 628.045 766.415 627.861 766.993 627.553C767.704 627.053 768.198 626.301 768.375 625.45C769.131 622.573 767.675 619.49 765.471 617.49C763.268 615.491 760.438 614.379 757.675 613.305L747.964 609.521C745.686 608.633 742.035 606.279 739.561 606.466C734.911 606.802 730.513 614.146 726.657 616.406Z" fill="#3F3D56"/>
<path opacity="0.05" d="M726.657 616.406C721.316 619.667 714.659 619.863 708.45 619.107C707.451 618.985 706.265 618.91 705.649 619.686C704.715 620.807 705.817 622.489 706.956 623.358C710.618 626.109 714.921 627.881 719.458 628.505C723.509 629.08 727.598 629.352 731.69 629.318C742.894 629.514 754.099 629.701 765.126 628.094C765.779 628.045 766.415 627.861 766.993 627.553C767.704 627.053 768.198 626.301 768.375 625.45C769.131 622.573 767.675 619.49 765.471 617.49C763.268 615.491 760.438 614.379 757.675 613.305L747.964 609.521C745.686 608.633 742.035 606.279 739.561 606.466C734.911 606.802 730.513 614.146 726.657 616.406Z" fill="black"/>
<path d="M733.464 487.418C729.421 492.8 725.238 499.013 726.238 505.674C726.779 509.262 728.787 512.429 730.262 515.746C732.26 520.249 733.306 525.089 734.333 529.91C735.845 536.954 737.367 544.018 738.292 551.174C739.347 559.256 734.389 582.641 733.931 590.779C733.819 592.741 733.586 594.862 732.223 596.272C731.69 596.833 730.981 597.282 730.738 598.01C730.596 598.712 730.712 599.442 731.065 600.066C733.343 605.204 738.002 609.035 743.203 611.221C748.404 613.407 760.943 617.182 766.611 617.378C767.358 617.46 768.114 617.361 768.815 617.088C769.569 616.628 770.162 615.946 770.514 615.136C774.576 607.363 770.673 579.726 770.729 570.953C770.785 563.638 772.512 556.369 772.195 549.063C771.933 543.195 770.327 537.459 769.795 531.61C768.861 522.024 770.617 512.392 772.381 502.918C773.726 495.649 775.08 488.381 776.807 481.205C777.862 476.824 779.085 472.404 781.476 468.602C783.343 465.584 785.967 463.061 788.142 460.193C794.181 452.271 796.864 442.291 795.612 432.407C795.481 431.473 781.606 435.93 780.383 436.462C775.392 438.577 770.801 441.531 766.807 445.198C763.595 448.262 761.065 452.354 758.254 455.783C754.277 460.635 750.349 465.522 746.471 470.442C742.045 476.067 737.71 481.725 733.464 487.418Z" fill="#464353"/>
<path opacity="0.05" d="M733.464 487.091C729.421 492.473 725.238 498.695 726.238 505.347C726.779 508.944 728.787 512.112 730.262 515.428C732.26 519.922 733.306 524.771 734.333 529.583C735.845 536.637 737.367 543.7 738.292 550.847C739.347 558.938 734.389 582.314 733.931 590.452C733.819 592.414 733.586 594.544 732.223 595.955C731.69 596.506 730.981 596.954 730.738 597.683C730.595 598.385 730.711 599.116 731.065 599.739C733.343 604.887 738.002 608.708 743.203 610.95C748.404 613.192 760.943 615.145 766.611 615.332C767.358 615.414 768.114 615.315 768.815 615.042C769.57 614.588 770.164 613.908 770.514 613.099C774.575 605.326 770.673 579.465 770.729 570.682C770.785 563.357 772.512 556.098 772.195 548.782C771.933 542.915 770.327 537.179 769.795 531.339C768.861 521.744 770.617 512.112 772.381 502.638C773.726 495.378 775.08 488.11 776.807 480.925C777.862 476.543 779.085 472.124 781.476 468.321C783.343 465.304 785.967 462.781 788.142 459.913C794.182 451.992 796.866 442.011 795.612 432.127C795.481 431.193 781.606 435.649 780.383 436.182C775.394 438.303 770.803 441.26 766.807 444.927C763.595 447.982 761.065 452.074 758.254 455.503C754.277 460.355 750.349 465.244 746.471 470.171C742.045 475.752 737.71 481.392 733.464 487.091Z" fill="black"/>
<path d="M688.478 368.894C700.994 368.894 711.14 358.742 711.14 346.219C711.14 333.696 700.994 323.544 688.478 323.544C675.963 323.544 665.817 333.696 665.817 346.219C665.817 358.742 675.963 368.894 688.478 368.894Z" fill="#FBBEBE"/>
<path d="M708.889 345.266C710.982 348.608 713.727 351.493 716.96 353.75C720.192 356.007 723.846 357.589 727.703 358.402L725.994 364.615C723.044 375.285 719.729 386.571 711.494 393.971C712.427 390.355 711.232 386.496 709.197 383.357C707.161 380.218 704.304 377.751 701.503 375.313L688.459 364.008C688.083 363.701 687.766 363.328 687.526 362.906C687.204 362.108 687.204 361.217 687.526 360.42C689.188 355.244 693.931 352.012 697.796 348.517C699.736 346.711 701.468 344.692 702.96 342.501C705.565 338.782 707.18 342.519 708.889 345.266Z" fill="#FBBEBE"/>
<path d="M658.627 323.422L658.114 319.162C661.69 320.096 665.089 317.05 667.376 313.902C669.664 310.753 671.783 307.044 675.266 305.727C679.496 304.139 683.978 306.661 688.021 308.791C692.547 311.305 697.514 312.922 702.652 313.556C703.471 313.583 704.284 313.715 705.07 313.949C707.703 314.883 708.954 318.19 709.337 321.189C709.72 324.188 709.617 327.374 710.915 330.046C711.849 332.074 713.585 333.578 714.65 335.577C717.451 340.94 714.743 348.274 717.666 353.535L710.402 346.873C709.739 346.266 708.805 345.63 708.067 346.144C707.488 346.555 707.442 347.443 707.208 348.153C706.508 350.227 703.912 350.844 702.036 350.022C700.159 349.199 698.786 347.415 697.367 345.789C694.155 341.996 690.327 338.661 685.845 337.044C683.881 336.309 681.782 336.001 679.69 336.139C677.597 336.278 675.557 336.86 673.707 337.848C670.317 339.763 667.834 344.229 663.679 344.388C657.983 344.603 655.612 333.989 652.979 329.794C653.942 329.069 654.62 328.027 654.893 326.852C655.166 325.677 655.017 324.443 654.472 323.366C654.855 323.207 658.543 322.768 658.627 323.422Z" fill="#464353"/>
<path d="M378.338 190.856C376.517 192.476 374.834 194.245 373.305 196.144C371.767 198.069 370.948 200.471 370.99 202.936C370.998 203.651 371.226 204.346 371.643 204.926C371.857 205.204 372.151 205.408 372.486 205.51C372.821 205.613 373.179 205.608 373.511 205.496C373.886 205.305 374.207 205.022 374.445 204.674C375.431 203.488 376.479 202.352 377.582 201.273C377.983 200.872 378.516 200.451 379.057 200.601C379.3 200.687 379.518 200.831 379.692 201.021C380.32 201.564 380.778 202.278 381.009 203.076C381.335 204.506 380.504 205.935 379.561 207.057C378.618 208.178 377.507 209.252 377.124 210.663C376.979 211.035 376.979 211.449 377.124 211.821C377.305 212.091 377.557 212.305 377.853 212.438C379.19 213.175 380.672 213.608 382.195 213.708C383.718 213.809 385.245 213.573 386.667 213.017C388.534 212.261 390.196 210.962 392.12 210.289C392.952 210.061 393.76 209.748 394.529 209.355C395.079 208.988 395.551 208.517 395.918 207.967C396.285 207.417 396.54 206.799 396.667 206.15C396.91 204.854 396.957 203.528 396.807 202.217C396.574 197.141 395.488 192.142 393.595 187.427C393.485 187.123 393.299 186.853 393.053 186.642C392.772 186.471 392.449 186.383 392.12 186.39C389.729 186.138 385.808 184.914 383.502 185.801C382.695 186.244 381.999 186.864 381.466 187.614C381.037 188.09 378.338 190.23 378.338 190.856Z" fill="#A1616A"/>
<path d="M377.581 188.744C377.581 186.465 374.78 180.962 379.234 180.597C379.234 178.159 375.789 176.645 376.433 174.057C376.638 173.198 377.367 172.497 377.451 171.619C377.731 169.124 373.23 167.77 373.977 165.378C374.257 164.443 375.247 163.902 375.462 162.977C375.966 160.818 372.11 159.856 372.035 157.642C372.035 156.894 372.455 156.194 372.418 155.446C372.418 154.512 371.606 153.802 371.157 152.989C369.99 150.906 370.56 147.682 368.431 146.608C369.841 146.729 370.298 144.637 369.72 143.357C369.141 142.077 367.955 140.965 367.946 139.545C368.015 139.03 368.015 138.508 367.946 137.994C367.553 136.63 365.322 136.518 364.948 135.191C364.9 134.682 364.884 134.17 364.902 133.659C364.752 132.603 363.669 131.93 362.651 131.631C361.594 131.452 360.577 131.088 359.645 130.557C358.991 130.062 358.235 129.239 357.535 129.623C357.273 129.781 357.143 130.08 356.946 130.305C356.106 131.286 354.5 130.856 353.445 130.136C350.326 128.016 348.776 124.213 348.114 120.504C347.451 116.795 347.469 112.964 346.638 109.292C346.385 108.148 346.048 107.024 345.63 105.929C345.275 104.995 344.136 103.528 344.061 102.584C343.893 100.435 348.338 101.902 350.028 102.117C351.668 102.277 353.291 102.59 354.874 103.051C356.563 103.69 358.218 104.417 359.832 105.228C366.573 108.209 374.715 108.573 380.13 113.581C381.914 115.225 383.417 117.383 385.733 118.131C386.795 118.334 387.843 118.606 388.87 118.944C391.438 120.149 391.839 123.559 393.24 126.025C393.68 126.677 394.064 127.364 394.388 128.081C394.658 128.926 394.784 129.81 394.762 130.697L394.958 137.172C395.275 148.019 395.593 158.894 394.435 169.676C394.061 173.235 393.501 176.898 394.556 180.317C394.836 181.251 395.228 182.13 395.49 183.073C395.721 184.18 395.84 185.306 395.845 186.437L395.994 190.632C396.046 190.958 395.973 191.292 395.789 191.566C395.633 191.693 395.45 191.783 395.255 191.83C395.059 191.877 394.855 191.879 394.659 191.837C388.823 191.314 382.922 188.025 377.413 190.015" fill="#464353"/>
<path d="M643.894 511.075C682.033 511.075 712.951 506.603 712.951 501.087C712.951 495.571 682.033 491.099 643.894 491.099C605.755 491.099 574.837 495.571 574.837 501.087C574.837 506.603 605.755 511.075 643.894 511.075Z" fill="#504F60"/>
<path d="M703.306 501.573C702.092 496.369 701.336 491.8 701.336 491.8C701.336 491.8 701.616 486.138 699.076 481.887V480.467V470.003C699.799 468.103 700.683 466.268 701.718 464.519C703.586 461.23 701.718 449.178 701.718 449.178C701.718 449.178 694.744 432.183 696.434 421.401C698.124 410.62 682.111 373.528 682.111 373.528C682.209 369.951 682.714 366.397 683.614 362.933C683.785 362.205 683.854 361.457 683.819 360.71C683.819 360.616 683.819 360.532 683.819 360.439C683.819 360.345 683.819 360.495 683.819 360.523C683.576 353.413 677.956 340.09 677.956 340.09L678.712 314.696C678.712 314.696 682.297 299.747 676.452 279.613C674.407 272.597 673.1 266.982 672.269 262.647C672.176 262.161 672.083 261.712 672.008 261.236C684.043 259.367 693.24 257.872 693.24 257.872C693.24 257.872 686.256 228.639 681.541 223.519C676.826 218.399 673.054 202.32 673.054 202.32C673.054 202.32 670.598 181.681 674.566 175.646C678.534 169.61 679.095 159.202 679.095 159.202C679.095 159.202 688.142 152.662 689.281 149.7C690.421 146.739 692.297 140.199 692.297 136.732C692.297 133.266 691.167 130.192 691.541 128.324C691.914 126.455 688.899 119.551 690.411 116.262C690.803 115.252 691.005 114.178 691.009 113.095C691.012 113.064 691.012 113.033 691.009 113.001C691.023 110.124 690.757 107.251 690.215 104.425C687.598 102.213 684.543 100.58 681.252 99.6318L681.055 98.847L680.542 96.7915C680.255 96.602 679.959 96.4273 679.655 96.2683V95.5209L679.571 92.5499L680.99 85.879C683.791 74.2751 668.301 72.5467 668.301 72.5467C667.362 70.7668 665.799 69.3962 663.913 68.6974C660.803 67.6043 663.399 86.15 664.846 87.3832C665.939 88.3175 669.319 94.0914 670.953 96.9504L671.214 97.4175C670.958 97.6476 670.721 97.8975 670.505 98.1649L671.093 102.192L671.186 102.808C670.16 104.084 669.326 105.504 668.712 107.022C668.712 107.022 671.513 110.124 670.981 113.562C670.449 117 671.849 121.363 671.915 121.597C671.746 121.401 669.758 119.252 667.769 119.775C665.78 120.298 660.224 121.971 660.224 121.971C660.224 121.971 656.079 122.699 656.49 123.615C656.9 124.531 653.689 128.548 653.689 128.548L642.54 117.972C642.428 117.654 642.307 117.337 642.213 117.038C641.758 115.513 641.446 113.949 641.28 112.366C642.495 112.077 643.687 111.699 644.846 111.236C646.018 110.833 647.075 110.154 647.928 109.255C649.057 107.919 649.272 106.106 649.73 104.443C650.607 101.192 652.531 98.3051 653.866 95.2126C656.127 89.987 656.856 84.2254 655.967 78.6009C655.796 76.8676 655.21 75.2011 654.258 73.7426C652.437 71.2387 649.132 70.2203 646.732 68.2209C644.333 66.2216 642.783 63.1664 639.982 61.6809C637.451 60.3262 634.379 60.485 631.522 60.9522C625.942 61.8729 620.582 63.8245 615.715 66.7074C614.09 67.6417 612.297 68.7909 610.43 68.4452C608.824 68.1555 607.629 66.8756 606.62 65.6423C606.632 65.5912 606.647 65.5413 606.667 65.4928C606.622 65.4473 606.581 65.3972 606.546 65.3433C605.364 67.9672 604.771 70.8182 604.809 73.6959C604.809 74.1443 604.809 74.6302 604.865 75.0319V75.4991C604.865 75.6299 604.865 75.7607 604.865 75.8821C604.865 76.0813 604.836 76.2794 604.781 76.4707C604.546 77.0422 604.189 77.5556 603.735 77.9749C603.393 78.3645 603.08 78.7799 602.802 79.2175C602.802 79.068 602.895 78.9186 602.951 78.7597C602.239 79.8001 601.837 81.0218 601.793 82.282C601.741 83.1994 602.042 84.102 602.633 84.8046C603.192 85.3478 603.802 85.8358 604.454 86.2621C604.232 87.4955 604.12 88.746 604.118 89.9992C604.139 93.7145 605.118 97.3614 606.96 100.587C608.801 103.813 611.444 106.509 614.632 108.414C614.762 108.722 614.884 109.04 615.005 109.348C616.434 113.086 617.507 117.477 617.031 121.494C617.031 121.784 616.947 122.083 616.9 122.372C616.854 122.662 616.62 122.681 616.499 122.84C616.499 122.84 598.077 123.026 593.745 119.102C589.412 115.178 582.802 128.698 582.802 128.698C582.802 128.698 576.2 129.978 574.874 128.698C573.549 127.418 565.827 128.52 565.827 128.52C562.663 125.705 558.546 124.201 554.314 124.316C551.75 122.366 548.92 120.793 545.911 119.644L545.705 119.57C544.377 119.085 542.957 118.906 541.55 119.046C541.55 119.046 532.493 111.572 529.851 107.536C527.209 103.5 514.632 88.5978 514.576 88.5324V87.813L514.436 85.6455C514.062 85.7041 513.684 85.7353 513.306 85.7389C513.24 85.524 513.147 85.2717 513.054 84.9821C512.329 82.8679 511.436 80.8152 510.383 78.8438C510.383 78.8438 510.383 76.1063 511.177 75.415C511.971 74.7236 510.85 64.68 510.85 64.68C510.85 64.68 502.69 45.5924 495.379 59.8404C495.379 59.8404 481.56 69.0618 493.156 79.8061C493.156 79.8061 497.825 82.0484 498.441 83.8236C498.871 84.9728 500.439 88.1961 501.494 90.3636L501.971 91.2979L501.84 91.41L502.008 93.2039L502.083 93.8952C499.898 95.1378 498.413 96.3711 498.777 97.2961C499.421 98.8789 499.863 100.536 500.094 102.229C500.094 102.229 516.135 122.335 518.208 130.921C518.208 130.921 561.224 156.502 575.369 158.324L572.867 171.077C572.502 174.538 572.315 178.015 572.307 181.494C572.493 184.232 570.607 196.658 570.607 196.658C570.607 196.658 568.152 214.933 566.079 217.492C564.006 220.052 564.379 231.012 564.379 231.012C563.89 236.258 562.953 241.453 561.578 246.54C559.506 253.481 561.009 262.077 561.009 262.077C561.009 262.077 553.847 278.52 571.009 267.374C571.009 267.374 579.412 266.851 589.141 266.515C589.141 266.832 589.141 267.159 589.141 267.449C589.141 268.701 589.141 270.056 589.076 271.476C588.945 280.893 588.889 293.899 589.319 303.69C590.075 321.049 595.36 355.403 595.36 355.403V372.697C595.019 374.319 594.85 375.972 594.856 377.63C594.744 383.715 596.363 389.706 599.524 394.905L600.85 406.415C600.85 406.415 603.95 414.002 604.006 418.561C603.994 418.929 603.95 419.294 603.875 419.654C603.755 420.235 603.704 420.828 603.726 421.42C603.548 426.652 606.695 439.172 606.695 439.172C606.695 439.172 606.882 451.775 608.768 452.513C610.383 453.139 606.611 459.773 605.491 461.679C605.461 461.562 605.439 461.443 605.425 461.323L605.192 461.697C604.803 462.717 604.603 463.8 604.604 464.892C604.497 465.753 604.637 466.626 605.008 467.41C605.378 468.194 605.963 468.857 606.695 469.321C610.281 471.517 612.204 473.338 609.16 474.067C608.04 474.241 606.931 474.475 605.836 474.768C605.836 474.628 605.724 474.478 605.677 474.348C605.248 474.515 604.89 474.827 604.663 475.228C604.437 475.63 604.357 476.098 604.436 476.552C604.464 478.035 604.845 479.488 605.547 480.794C608.563 487.558 610.654 490.137 610.654 490.137L612.101 489.978C611.888 490.532 611.605 491.056 611.261 491.538C610.71 492.322 609.98 492.963 609.132 493.407C608.341 493.881 607.46 494.183 606.546 494.295C605.523 494.328 604.519 494.576 603.599 495.024C602.679 495.471 601.863 496.108 601.205 496.892C599.337 499.33 598.142 502.647 601.858 505.562L615.351 510.234C615.351 510.234 638.562 513.251 637.33 508.038C636.097 502.825 635.351 498.265 635.351 498.265C635.45 495.082 634.811 491.919 633.483 489.025C633.24 488.553 632.965 488.097 632.661 487.661L633.483 487.577C633.483 487.577 635.182 476.057 637.442 473.871C637.965 473.367 638.086 472.937 637.965 472.675C638.198 472.049 637.601 471.685 636.844 471.47L636.676 471.928C635.937 471.766 635.183 471.682 634.426 471.675C634.426 471.675 633.67 465.649 636.126 463.454C636.324 463.203 636.468 462.915 636.55 462.606C636.632 462.298 636.65 461.976 636.602 461.66C636.62 460.833 636.532 460.007 636.34 459.203C636.316 459.254 636.288 459.304 636.256 459.352C635.024 453.877 630.841 445.179 630.841 445.179C630.841 445.179 630.654 439.704 632.167 437.508C633.679 435.313 631.971 407.723 631.971 407.723C631.971 407.723 632.54 394.391 630.841 388.178C629.141 381.965 632.914 374.649 632.914 374.649C632.914 374.649 632.914 374.509 632.914 374.257V374.164L632.699 372.061C632.694 372.105 632.694 372.149 632.699 372.192C632.316 368.661 631.597 362.261 631.065 359.308C630.309 355.104 631.261 335.017 631.261 335.017L634.65 326.421L640.691 341.23L647.106 360.962C647.106 360.962 650.281 365.129 650.355 369.371C650.355 369.576 650.355 369.782 650.355 369.987C650.303 370.424 650.278 370.864 650.28 371.305C650.167 373.798 650.85 376.262 652.232 378.34C652.232 378.34 653.931 387.683 656.574 390.028C659.216 392.373 659.216 396.97 659.216 396.97C659.216 396.97 662.419 410.498 663.885 412.853C665.154 414.852 665.22 420.327 665.21 422.037C665.21 422.345 665.21 422.522 665.21 422.522C665.21 422.522 665.659 427.362 665.64 431.417C665.64 431.921 665.64 432.407 665.64 432.865C665.644 432.831 665.644 432.796 665.64 432.762C665.639 433.87 665.507 434.974 665.248 436.051L665.192 436.238C665.192 436.004 665.192 435.78 665.257 435.556C664.601 438.309 664.287 441.134 664.323 443.964C664.239 448.823 664.977 454.578 667.918 457.979C673.016 463.827 676.219 463.099 676.219 463.099C676.219 463.099 673.773 470.405 670.747 471.872C670.633 471.926 670.526 471.995 670.43 472.077C670.43 471.928 670.374 471.788 670.355 471.647C670.018 472.012 669.761 472.443 669.6 472.913C669.439 473.382 669.378 473.881 669.421 474.376C669.207 477.59 671.233 482.784 673.156 485.204C673.871 485.904 674.746 486.417 675.705 486.699C675.553 486.806 675.394 486.903 675.229 486.988C674.893 487.173 674.547 487.338 674.193 487.484C673.702 487.692 673.183 487.828 672.652 487.885C671.628 487.913 670.622 488.159 669.701 488.607C668.78 489.054 667.965 489.694 667.311 490.483C665.444 492.912 664.249 496.229 667.965 499.144L681.457 503.815C681.457 503.815 704.52 506.777 703.306 501.573Z" fill="url(#paint0_linear_13:1307)"/>
<path d="M614.687 510.206L601.615 505.534C598.011 502.619 599.159 499.302 600.98 496.864C601.607 496.086 602.393 495.452 603.285 495.004C604.177 494.556 605.155 494.304 606.153 494.267C607.038 494.154 607.888 493.851 608.646 493.379C609.475 492.929 610.185 492.288 610.719 491.51C611.672 489.996 612.187 488.246 612.203 486.456C612.203 486.456 626.545 482.252 630.467 486.456C631.167 487.217 631.752 488.076 632.203 489.007C633.506 491.909 634.144 495.066 634.071 498.247C634.071 498.247 634.799 502.806 635.985 508.019C637.171 513.233 614.687 510.206 614.687 510.206Z" fill="#2D293D"/>
<path d="M678.59 503.759L665.518 499.088C661.914 496.173 663.063 492.856 664.883 490.427C665.505 489.646 666.289 489.01 667.18 488.561C668.072 488.113 669.05 487.863 670.047 487.829C670.563 487.776 671.068 487.641 671.541 487.428C671.886 487.282 672.223 487.116 672.549 486.932C676.2 484.924 676.107 479.991 676.107 479.991C676.107 479.991 690.439 475.786 694.37 479.991C694.896 480.56 695.356 481.187 695.742 481.859C698.198 486.11 697.927 491.781 697.927 491.781C697.927 491.781 698.656 496.35 699.795 501.554C700.934 506.758 678.59 503.759 678.59 503.759Z" fill="#2D293D"/>
<path opacity="0.1" d="M630.476 486.447C631.176 487.208 631.761 488.067 632.213 488.997L610.737 491.492C611.691 489.977 612.205 488.227 612.222 486.437C612.222 486.437 626.554 482.242 630.476 486.447Z" fill="black"/>
<path opacity="0.1" d="M695.761 481.878V485.905C692.419 491.408 676.256 490.202 671.56 487.446C671.905 487.3 672.241 487.135 672.568 486.951C676.219 484.942 676.125 480.009 676.125 480.009C676.125 480.009 690.458 475.805 694.389 480.009C694.915 480.579 695.375 481.206 695.761 481.878Z" fill="black"/>
<path d="M698.31 464.519C697.31 466.273 696.458 468.108 695.761 470.003V484.438C692.1 490.464 673.118 488.455 670.551 485.167C667.983 481.878 665.303 473.32 668.188 471.834C671.073 470.349 673.482 463.061 673.482 463.061C673.482 463.061 670.373 463.79 665.443 457.941C660.513 452.093 661.979 439.125 662.894 436.023C663.809 432.921 662.894 422.504 662.894 422.504C662.894 422.504 663.081 415.188 661.624 412.815C660.168 410.442 657.058 396.932 657.058 396.932C657.058 396.932 657.058 392.364 654.5 389.991C651.942 387.617 650.298 378.293 650.298 378.293C648.803 375.963 648.159 373.187 648.478 370.436C649.019 365.867 645.368 360.934 645.368 360.934L639.159 341.193L633.314 326.393L630.028 334.98C630.028 334.98 629.094 355.076 629.85 359.271C630.607 363.466 631.718 374.621 631.718 374.621C631.718 374.621 628.067 381.928 629.71 388.141C631.354 394.354 630.756 407.705 630.756 407.705C630.756 407.705 632.399 435.285 630.933 437.48C629.467 439.676 629.654 445.16 629.654 445.16C629.654 445.16 637.124 461.23 634.771 463.426C632.418 465.621 633.128 471.648 633.128 471.648C633.128 471.648 638.235 471.647 636.05 473.843C633.865 476.039 632.213 487.549 632.213 487.549L610.13 490.137C610.13 490.137 608.114 487.586 605.191 480.794C602.269 474.002 605.733 474.768 608.674 474.03C611.615 473.292 609.757 471.479 606.283 469.284C602.81 467.088 604.827 462.155 604.827 462.155C604.827 462.155 610.121 453.205 608.291 452.476C606.461 451.747 606.283 439.134 606.283 439.134C606.283 439.134 602.633 424.186 603.548 420.131C604.463 416.076 600.625 406.434 600.625 406.434L599.346 394.924C595.439 388.392 594.014 380.671 595.331 373.173V355.422C595.331 355.422 590.214 321.077 589.486 303.718C589.019 292.6 589.15 277.427 589.299 267.963C589.393 262.656 589.486 259.134 589.486 259.134L668.366 250.912C668.366 250.912 668.291 254.556 669.794 262.637C670.607 266.973 671.867 272.588 673.847 279.604C679.505 299.701 676.041 314.677 676.041 314.677L675.303 340.081C675.303 340.081 682.241 357.066 680.784 362.915C679.904 366.388 679.409 369.947 679.309 373.528C679.309 373.528 694.827 410.62 693.184 421.401C691.54 432.183 698.291 449.178 698.291 449.178C698.291 449.178 700.14 461.23 698.31 464.519Z" fill="#464353"/>
<path opacity="0.05" d="M653.212 369.333L677.227 366.129C677.227 366.129 663.623 380.022 653.212 369.333Z" fill="black"/>
<path opacity="0.1" d="M673.753 342.65C673.753 342.65 674.575 351.152 669.374 354.347C669.374 354.347 678.683 352.89 673.753 342.65Z" fill="black"/>
<path opacity="0.1" d="M672.278 315.612C672.278 315.612 652.203 332.149 644.902 330.775C637.6 329.402 672.278 315.612 672.278 315.612Z" fill="black"/>
<path opacity="0.1" d="M623.445 377.088C623.445 377.088 608.198 380.554 607.74 386.683C607.282 392.812 623.445 377.088 623.445 377.088Z" fill="black"/>
<path opacity="0.05" d="M626.797 453.289C626.797 453.289 605.257 457.306 611.372 460.044C617.488 462.781 627.535 464.977 627.535 464.977C627.535 464.977 634.491 465.341 626.797 453.289Z" fill="black"/>
<g opacity="0.05">
<path opacity="0.05" d="M607.021 464.397C606.48 464.059 606.021 463.603 605.68 463.062C605.339 462.522 605.124 461.912 605.051 461.277L604.827 461.66C604.827 461.66 602.82 466.593 606.293 468.779C606.685 469.032 607.068 469.284 607.413 469.527C608.058 469.405 608.749 469.312 609.412 469.144C612.353 468.415 610.495 466.593 607.021 464.397Z" fill="black"/>
<path opacity="0.05" d="M634.771 462.931C635.369 462.389 635.35 460.987 634.986 459.193C634.052 460.604 633.781 462.809 633.763 464.482C633.989 463.901 634.333 463.373 634.771 462.931Z" fill="black"/>
<path opacity="0.05" d="M631.457 372.034C630.663 374.195 630.173 376.455 630 378.751C630.416 377.165 630.976 375.62 631.671 374.136L631.457 372.034Z" fill="black"/>
<path opacity="0.05" d="M680.794 362.448C680.938 361.791 681.003 361.12 680.99 360.448C680.719 361.812 680.533 363.074 680.393 364.185C680.514 363.616 680.645 363.074 680.794 362.448Z" fill="black"/>
<path opacity="0.05" d="M630.943 436.995C631.242 436.546 631.41 435.033 631.485 432.931C630.809 434.557 630.451 436.298 630.43 438.06C630.557 437.685 630.73 437.328 630.943 436.995Z" fill="black"/>
<path opacity="0.05" d="M635.425 471.451C634.293 475.116 633.453 478.865 632.913 482.663L610.831 485.213C610.831 485.213 608.814 482.663 605.892 475.871C605.656 475.346 605.447 474.81 605.266 474.264C603.94 474.871 603.399 476.244 605.154 480.252C608.077 487.017 610.103 489.595 610.103 489.595L632.185 487.035C632.185 487.035 633.828 475.525 636.013 473.329C637.134 472.274 636.443 471.722 635.425 471.451Z" fill="black"/>
<path opacity="0.05" d="M606.293 438.639C606.293 438.639 606.471 451.243 608.301 451.971C609.234 449.888 609.841 447.907 609.02 447.58C607.152 446.851 607.012 434.239 607.012 434.239C607.012 434.239 603.361 419.29 604.276 415.235C605.192 411.18 601.354 401.538 601.354 401.538L600.075 390.028C596.168 383.496 594.743 375.775 596.06 368.278V350.526C596.06 350.526 590.943 316.182 590.215 298.823C589.748 287.704 589.879 272.532 590.028 263.067C590.028 261.357 590.084 259.844 590.112 258.564L589.487 258.629C589.487 258.629 589.384 262.142 589.3 267.458C589.15 276.923 589.01 292.096 589.487 303.204C590.215 320.563 595.322 354.917 595.322 354.917V372.669C594.012 380.164 595.44 387.881 599.346 394.41L600.616 405.92C600.616 405.92 604.454 415.599 603.539 419.626C602.624 423.653 606.293 438.639 606.293 438.639Z" fill="black"/>
<path opacity="0.05" d="M671.298 480.29C669.504 477.691 668.308 474.727 667.796 471.61C665.546 473.647 668.132 481.551 670.597 484.69C673.146 487.979 692.138 489.988 695.807 483.952V480.477C690.831 485.363 673.706 483.401 671.298 480.29Z" fill="black"/>
<path opacity="0.05" d="M699.048 459.642C698.046 461.397 697.191 463.231 696.489 465.126V467.714C696.909 466.78 697.498 465.528 698.357 464.052C698.935 462.613 699.208 461.07 699.16 459.52C699.16 459.52 699.076 459.604 699.048 459.642Z" fill="black"/>
<path opacity="0.05" d="M672.418 462.529C673.112 461.121 673.714 459.67 674.22 458.184C674.22 458.184 671.111 458.913 666.181 453.065C662.595 448.813 662.39 440.779 662.904 435.528C661.97 438.639 660.523 451.607 665.453 457.456C668.674 461.277 671.111 462.286 672.418 462.529Z" fill="black"/>
<path opacity="0.05" d="M662.895 422.009C663.217 425.609 663.338 429.224 663.259 432.837C663.35 432.267 663.475 431.702 663.632 431.146C664.566 428.035 663.632 417.627 663.632 417.627C663.632 417.627 663.819 410.311 662.353 407.938C660.887 405.565 657.834 392.037 657.834 392.037C657.834 392.037 657.834 387.468 655.276 385.095C652.717 382.722 651.074 373.398 651.074 373.398C649.565 371.072 648.905 368.296 649.207 365.54C649.757 360.972 646.107 356.038 646.107 356.038L639.898 336.306L634.053 321.507L630.757 330.103C630.757 330.103 630.757 331.186 630.645 332.905L633.315 325.926L639.16 340.697L645.369 360.43C645.369 360.43 649.02 365.363 648.469 369.931C648.167 372.688 648.827 375.463 650.336 377.789C650.336 377.789 651.98 387.132 654.538 389.486C657.096 391.84 657.087 396.428 657.087 396.428C657.087 396.428 660.196 409.947 661.653 412.311C663.11 414.675 662.895 422.009 662.895 422.009Z" fill="black"/>
</g>
<path d="M678.226 85.851L676.854 92.5218L676.938 95.4929L676.994 97.6791L669.375 98.4639L668.525 96.885C666.947 94.026 663.67 88.2148 662.615 87.3178C661.205 86.1406 658.693 67.5856 661.681 68.6881C663.52 69.3989 665.031 70.7671 665.92 72.528C665.92 72.528 680.925 74.2471 678.226 85.851Z" fill="#FFCDD3"/>
<path opacity="0.1" d="M676.993 97.6791L669.374 98.4639L668.524 96.885C669.549 95.7176 670.947 94.9418 672.479 94.6896C674.011 94.4375 675.583 94.7247 676.928 95.5022L676.993 97.6791Z" fill="black"/>
<path d="M678.917 101.295L668.87 103.621L668.656 102.126L668.086 98.0996C668.086 98.0996 672.064 92.7928 677.815 96.7729L678.319 98.819L678.917 101.295Z" fill="#CCCCCC"/>
<path d="M516.172 86.5798L505.444 92.3351L504.51 90.317C503.492 88.1775 501.97 84.9542 501.55 83.777C500.915 82.0018 496.443 79.7595 496.443 79.7595C485.238 69.0245 498.59 59.7937 498.59 59.7937C505.668 45.5458 513.53 64.6334 513.53 64.6334C513.53 64.6334 514.631 74.6957 513.856 75.3683C513.082 76.041 513.082 78.7972 513.082 78.7972C514.104 80.7718 514.969 82.8243 515.668 84.9355C515.995 85.9539 516.172 86.5798 516.172 86.5798Z" fill="#FFCDD3"/>
<path opacity="0.1" d="M516.172 86.5798L505.443 92.335L504.51 90.3169C506.022 89.0463 511.391 84.7112 513.156 84.8887C513.998 84.9939 514.849 85.0158 515.696 84.9541C515.994 85.9538 516.172 86.5798 516.172 86.5798Z" fill="black"/>
<path d="M517.264 89.8217L505.21 95.7638L504.967 93.1758L504.799 91.382C504.799 91.382 511.783 85.3932 513.846 85.6268C514.89 85.7781 515.95 85.7781 516.993 85.6268L517.133 87.7943L517.264 89.8217Z" fill="#CCCCCC"/>
<path d="M649.01 130.164C649.01 130.164 596.461 136.097 606.284 132.902C613.119 130.669 615.836 126.362 616.405 121.504C616.872 117.458 615.827 113.095 614.454 109.358C613.219 106.042 611.655 102.859 609.785 99.856C609.785 99.856 649.935 77.7507 641.914 97.8473C640.677 100.887 639.909 104.097 639.636 107.368C639.395 110.618 639.746 113.885 640.672 117.01C642.187 122.08 645.073 126.632 649.01 130.164Z" fill="#FFCDD3"/>
<path opacity="0.1" d="M641.886 97.8193C640.649 100.859 639.881 104.069 639.608 107.34C635.826 110.526 631.681 110.311 626.349 110.311C622.259 110.311 617.722 111.301 614.454 109.33C613.219 106.014 611.655 102.831 609.785 99.8281C609.785 99.8281 649.925 77.7228 641.886 97.8193Z" fill="black"/>
<path d="M625.639 111.712C637.639 111.712 647.367 101.978 647.367 89.9713C647.367 77.9641 637.639 68.2303 625.639 68.2303C613.64 68.2303 603.912 77.9641 603.912 89.9713C603.912 101.978 613.64 111.712 625.639 111.712Z" fill="#FFCDD3"/>
<path opacity="0.1" d="M649.01 130.164C649.01 130.164 596.461 136.097 606.284 132.902C613.119 130.669 615.836 126.362 616.405 121.504C619.02 118.701 624.277 116.617 627.61 115.533C630.692 114.496 634.019 114.441 637.134 115.375C638.359 115.744 639.525 116.285 640.598 116.982C642.129 122.07 645.041 126.634 649.01 130.164Z" fill="black"/>
<path opacity="0.1" d="M678.917 101.295L668.87 103.621L668.655 102.126C669.731 100.648 671.236 99.537 672.965 98.9452C674.694 98.3534 676.564 98.3093 678.319 98.819L678.917 101.295Z" fill="black"/>
<path opacity="0.1" d="M517.265 89.8218L505.21 95.7639L504.968 93.1759C508.872 91.0753 512.93 89.2732 517.106 87.785L517.265 89.8218Z" fill="black"/>
<path opacity="0.1" d="M669.795 262.656C649.431 265.907 620.486 270.056 615.892 268.654C612.073 267.496 599.897 267.617 589.3 267.982C589.393 262.675 589.487 259.153 589.487 259.153L668.366 250.931C668.366 250.931 668.291 254.575 669.795 262.656Z" fill="black"/>
<path d="M690.093 257.872C690.093 257.872 623.081 269.383 615.891 267.215C608.702 265.048 571.774 267.393 571.774 267.393C555.154 278.539 562.091 262.096 562.091 262.096C562.091 262.096 560.635 253.509 562.642 246.568C563.99 241.471 564.912 236.271 565.397 231.021C565.397 231.021 565.032 220.052 567.04 217.492C569.047 214.933 571.428 196.667 571.428 196.667C571.428 196.667 573.249 184.241 573.072 181.504C572.894 178.766 573.613 171.086 573.613 171.086L575.994 158.296C562.297 156.474 520.663 130.893 520.663 130.893C518.655 122.307 503.137 102.21 503.137 102.21C502.911 100.52 502.481 98.8641 501.858 97.2774C500.765 94.353 517.199 88.5044 517.199 88.5044C517.199 88.5044 529.43 103.453 531.988 107.508C534.547 111.563 543.305 119.018 543.305 119.018C544.666 118.878 546.04 119.057 547.32 119.542L547.535 119.607C550.47 120.76 553.222 122.333 555.705 124.278C559.822 124.181 563.816 125.688 566.844 128.483C566.844 128.483 574.313 127.38 575.611 128.66C576.909 129.94 583.277 128.66 583.277 128.66C583.277 128.66 589.664 115.141 593.865 119.065C598.067 122.989 615.891 122.802 615.891 122.802C618.263 119.644 624.043 117.383 627.656 116.262C630.739 115.229 634.065 115.174 637.18 116.103C638.524 116.505 639.788 117.137 640.915 117.972L651.755 128.567C651.755 128.567 654.855 124.54 654.491 123.634C654.127 122.727 658.142 121.989 658.142 121.989C658.142 121.989 663.436 120.345 665.443 119.794C667.451 119.243 669.29 121.419 669.458 121.616C669.393 121.382 668.02 116.944 668.524 113.581C669.029 110.217 666.33 107.041 666.33 107.041C672.717 91.326 687.143 104.481 687.143 104.481C687.143 104.481 688.786 113.067 687.329 116.356C685.873 119.644 688.786 126.586 688.422 128.417C688.058 130.248 689.159 133.35 689.159 136.826C689.159 140.301 687.292 146.87 686.237 149.794C685.182 152.718 676.377 159.296 676.377 159.296C676.377 159.296 675.826 169.713 671.988 175.739C668.151 181.765 670.56 202.376 670.56 202.376C670.56 202.376 674.211 218.455 678.777 223.575C683.342 228.695 690.093 257.872 690.093 257.872Z" fill="#3F3D56"/>
<path opacity="0.1" d="M592.409 137.648C592.409 137.648 590.402 131.622 588.571 131.108C586.754 130.439 584.986 129.647 583.277 128.735L584.454 126.483C584.454 126.483 591.307 128.352 592.409 130.379C593.511 132.407 592.409 137.648 592.409 137.648Z" fill="black"/>
<path opacity="0.1" d="M555.705 124.316C555.341 126.184 539.085 127.782 539.085 127.782L547.302 119.542L547.507 119.616C550.454 120.775 553.215 122.359 555.705 124.316Z" fill="black"/>
<path d="M508.683 100.697C509.488 100.697 510.14 100.044 510.14 99.2395C510.14 98.4345 509.488 97.782 508.683 97.782C507.879 97.782 507.227 98.4345 507.227 99.2395C507.227 100.044 507.879 100.697 508.683 100.697Z" fill="#575988"/>
<path d="M510.551 103.621C511.356 103.621 512.008 102.969 512.008 102.164C512.008 101.359 511.356 100.706 510.551 100.706C509.747 100.706 509.095 101.359 509.095 102.164C509.095 102.969 509.747 103.621 510.551 103.621Z" fill="#575988"/>
<path d="M512.381 106.321C513.186 106.321 513.838 105.669 513.838 104.864C513.838 104.059 513.186 103.406 512.381 103.406C511.577 103.406 510.925 104.059 510.925 104.864C510.925 105.669 511.577 106.321 512.381 106.321Z" fill="#575988"/>
<path d="M514.295 109.236C515.1 109.236 515.752 108.584 515.752 107.779C515.752 106.974 515.1 106.321 514.295 106.321C513.491 106.321 512.839 106.974 512.839 107.779C512.839 108.584 513.491 109.236 514.295 109.236Z" fill="#575988"/>
<path d="M686.414 108.807C687.069 108.807 687.6 108.275 687.6 107.62C687.6 106.965 687.069 106.433 686.414 106.433C685.759 106.433 685.229 106.965 685.229 107.62C685.229 108.275 685.759 108.807 686.414 108.807Z" fill="#575988"/>
<path d="M686.602 111.507C687.257 111.507 687.788 110.975 687.788 110.32C687.788 109.665 687.257 109.134 686.602 109.134C685.947 109.134 685.416 109.665 685.416 110.32C685.416 110.975 685.947 111.507 686.602 111.507Z" fill="#575988"/>
<path d="M686.76 114.197C687.415 114.197 687.946 113.666 687.946 113.011C687.946 112.356 687.415 111.824 686.76 111.824C686.105 111.824 685.574 112.356 685.574 113.011C685.574 113.666 686.105 114.197 686.76 114.197Z" fill="#575988"/>
<path opacity="0.1" d="M592.474 187.166C592.297 186.951 633.464 238.963 665.415 208.906C665.443 208.916 614.958 215.764 592.474 187.166Z" fill="black"/>
<path opacity="0.1" d="M568.852 214.204C568.852 214.204 593.483 214.877 596.06 221.968V229.349C595.358 229.738 594.57 229.942 593.767 229.942C592.965 229.942 592.177 229.738 591.475 229.349C588.992 228.003 574.099 220.436 568.852 224.079V214.204Z" fill="black"/>
<path d="M569.309 214.204C569.309 214.204 592.866 214.849 595.331 221.613V228.639C594.66 229.012 593.905 229.207 593.137 229.207C592.369 229.207 591.614 229.012 590.943 228.639C588.571 227.368 574.332 220.146 569.309 223.621V214.204Z" fill="#3F3D56"/>
<path opacity="0.1" d="M582.297 160.688C584.813 166.516 588.02 172.021 591.849 177.085C596.012 182.681 601.058 187.563 606.788 191.538C606.788 191.538 582.708 164.07 582.297 160.688Z" fill="black"/>
<path opacity="0.1" d="M574.239 132.052C574.239 132.052 578.348 149.803 588.936 155.829L574.239 132.052Z" fill="black"/>
<path opacity="0.1" d="M567.936 133.846C567.833 133.519 564.285 147.86 581.587 155.829C581.587 155.829 574.239 153.335 567.936 133.846Z" fill="black"/>
<path opacity="0.1" d="M675.49 121.943C675.22 121.943 684.025 127.548 686.424 130.164C686.424 130.164 680.691 121.569 675.49 121.943Z" fill="black"/>
<path d="M619.766 109.675C619.769 110.15 619.871 110.618 620.064 111.051C620.258 111.484 620.539 111.872 620.89 112.191C621.241 112.51 621.654 112.752 622.104 112.903C622.553 113.054 623.029 113.11 623.501 113.067C630.121 113.478 637.021 113.768 643.109 111.198C644.251 110.791 645.276 110.111 646.097 109.218C647.18 107.882 647.395 106.069 647.833 104.406C648.692 101.155 650.523 98.2678 651.839 95.1753C654.066 89.9505 654.813 84.2128 653.996 78.5916C653.824 76.8686 653.255 75.2089 652.334 73.7427C650.579 71.2294 647.376 70.2111 645.051 68.2117C642.726 66.2123 641.232 63.1572 638.515 61.6716C636.069 60.3076 633.072 60.4758 630.317 60.9429C624.899 61.8635 619.708 63.8139 615.023 66.6888C613.445 67.6231 611.718 68.7723 609.906 68.4266C608.319 68.1276 607.161 66.7916 606.171 65.5396C604.898 68.5295 604.363 71.7822 604.612 75.0227C604.681 75.4982 604.665 75.9821 604.566 76.4521C604.337 77.0204 603.99 77.5332 603.548 77.9563C601.914 79.8249 600.896 82.8614 602.511 84.786C603.212 85.6175 604.295 86.0753 604.976 86.9255C606.199 88.4484 605.789 90.6627 605.761 92.606C605.693 93.2846 605.865 93.9654 606.246 94.5306C606.599 94.8601 607.032 95.0926 607.501 95.2056C607.971 95.3185 608.462 95.3081 608.926 95.1753C609.851 94.8965 610.822 94.8044 611.783 94.9044C612.795 95.2337 613.669 95.8912 614.267 96.7729C617.283 100.706 618.478 104.985 619.766 109.675Z" fill="#2D293D"/>
<g opacity="0.1">
<path opacity="0.1" d="M646.872 107.564C646.052 108.457 645.026 109.137 643.884 109.545C637.759 112.095 630.869 111.806 624.277 111.413C623.569 111.42 622.869 111.264 622.232 110.955C621.223 110.367 620.841 109.134 620.532 108.012C619.244 103.341 618.058 99.0526 614.996 95.1566C614.405 94.2579 613.531 93.5834 612.512 93.2413C611.551 93.1506 610.582 93.2425 609.655 93.5122C609.191 93.6462 608.701 93.6581 608.232 93.5468C607.762 93.4355 607.329 93.2048 606.975 92.8769C606.594 92.3116 606.422 91.6308 606.49 90.9523C606.49 88.9902 606.928 86.7947 605.705 85.2718C605.024 84.4216 603.941 83.9638 603.24 83.1229C602.784 82.503 602.503 81.7707 602.429 81.0041C602.355 80.2374 602.49 79.465 602.82 78.7691C601.653 80.6377 601.158 82.9827 602.512 84.5897C603.212 85.4212 604.295 85.8791 604.977 86.7293C606.2 88.2615 605.789 90.4664 605.761 92.4097C605.69 93.0873 605.858 93.7685 606.237 94.3344C606.592 94.6654 607.026 94.8989 607.497 95.0119C607.968 95.1249 608.461 95.1136 608.927 94.979C609.852 94.7002 610.823 94.6081 611.784 94.7081C612.796 95.0375 613.67 95.6949 614.267 96.5767C617.321 100.473 618.516 104.752 619.804 109.442C619.955 110.596 620.531 111.652 621.42 112.404C622.06 112.712 622.763 112.866 623.474 112.852C630.094 113.263 636.994 113.562 643.082 110.983C644.225 110.578 645.251 109.898 646.069 109.003C646.481 108.476 646.797 107.882 647.003 107.246C647.012 107.368 646.947 107.471 646.872 107.564Z" fill="black"/>
<path opacity="0.1" d="M604.613 75.8822C604.906 75.5635 605.132 75.1884 605.276 74.7797C605.36 74.3069 605.36 73.823 605.276 73.3502C605.094 70.6865 605.44 68.0131 606.294 65.4835L606.172 65.3434C604.895 68.3287 604.36 71.5795 604.613 74.8171C604.641 75.1716 604.641 75.5277 604.613 75.8822Z" fill="black"/>
</g>
<path opacity="0.1" d="M615.892 122.849C615.892 122.849 643.034 126.455 645.471 122.372L615.892 122.849Z" fill="black"/>
<path opacity="0.1" d="M668.655 111.609C668.655 111.609 683.744 111.609 687.059 117.29L668.655 111.609Z" fill="black"/>
<path d="M753.071 616.266C748.596 620.27 742.781 622.444 736.778 622.358C735.247 622.358 733.128 622.648 733.118 624.18C733.155 624.629 733.31 625.061 733.566 625.432C735.461 628.592 738.453 630.943 741.97 632.037C745.238 633.028 748.73 632.859 752.138 632.682L762.082 632.168C763.949 632.065 765.817 631.972 767.684 631.738C769.551 631.505 771.587 631.122 773.538 630.804C778.333 630.122 783.182 629.897 788.02 630.131C789.309 630.178 790.821 630.131 791.587 629.197C792.353 628.263 791.96 626.478 791.671 625.077C791.073 622.19 791.671 619.163 791.12 616.266C790.186 611.184 785.789 607.288 780.971 605.447C776.489 603.747 768.552 601.794 764.313 604.634C759.841 607.615 757.105 612.595 753.071 616.266Z" fill="#3F3D56"/>
<path d="M762.95 445.983C763.828 450.159 767.871 453.354 767.983 457.614C768.086 461.034 765.649 463.902 763.893 466.827C762.239 469.855 760.843 473.018 759.72 476.282C756.415 484.779 752.313 492.943 747.47 500.667C745.135 504.404 742.521 508.393 743.053 512.738C743.425 514.769 744.142 516.722 745.173 518.512L752.175 532.432C753.709 535.212 754.91 538.163 755.752 541.224C756.358 543.868 756.414 546.606 756.769 549.296C757.871 557.836 761.877 566.431 759.505 574.709C759.3 575.419 758.571 576.279 758.002 575.784C760.317 580.109 762.175 584.463 761.998 589.368C761.905 591.937 761.12 594.619 762.063 597.011C762.465 598.01 763.165 598.945 763.156 600.019C763.156 600.729 762.829 601.392 762.754 602.084C762.558 604.055 764.37 605.699 766.246 606.325C768.123 606.951 770.168 606.905 772.063 607.475C775.705 608.568 778.31 611.707 781.4 613.884C784.571 616.069 788.308 617.287 792.157 617.387C792.706 617.446 793.26 617.335 793.744 617.07C794.018 616.83 794.239 616.534 794.39 616.202C794.541 615.87 794.62 615.51 794.622 615.145C794.791 613.4 794.528 611.64 793.858 610.021C793.187 608.401 792.128 606.972 790.775 605.858C790.182 605.487 789.691 604.973 789.346 604.363C789.172 603.824 789.127 603.251 789.216 602.691C789.779 595.033 789.642 587.34 788.805 579.708C788.427 577.289 788.305 574.837 788.441 572.392C788.637 570.355 789.253 568.337 789.029 566.31C788.805 564.282 787.768 562.433 787.161 560.48C786.078 557.004 786.377 553.267 786.228 549.633C786.041 543.317 784.594 537.113 783.156 530.947C782.586 528.527 781.961 525.995 780.252 524.201C778.795 522.678 776.442 521.221 776.993 519.194C777.298 518.446 777.753 517.769 778.329 517.203C779.005 516.354 779.501 515.376 779.787 514.329C780.072 513.282 780.142 512.187 779.991 511.112C780.605 511.269 781.254 511.207 781.828 510.938C782.402 510.669 782.865 510.208 783.137 509.636C794.51 504.264 803.679 493.519 807.768 481.607C808.009 480.722 808.381 479.879 808.87 479.103C809.925 477.627 811.755 476.992 813.38 476.179C818.478 473.61 821.998 468.798 825.229 464.089C827.096 461.361 828.963 458.539 829.804 455.325C830.246 453.247 830.455 451.125 830.429 449L830.719 438.022C830.782 437.3 830.713 436.571 830.513 435.874C830.236 435.222 829.833 434.631 829.328 434.136C826.222 430.85 822.144 428.649 817.694 427.857C814.706 427.325 811.653 427.428 808.627 427.175C802.764 426.689 796.975 424.868 791.111 425.307C781.895 425.989 773.688 432.379 769.346 440.545C767.824 443.423 766.218 445.927 762.95 445.983Z" fill="#464353"/>
<path d="M711.784 374.603C711.908 376.298 711.679 378 711.111 379.601C710.392 381.133 708.59 382.329 707.012 381.703C707.489 380.629 706.228 379.405 705.052 379.536C704.473 379.669 703.935 379.941 703.485 380.329C703.034 380.716 702.684 381.207 702.465 381.759C701.685 383.329 701.424 385.105 701.718 386.833C702.092 388.981 703.334 391.046 703.007 393.204C702.745 394.998 701.429 396.783 702.129 398.446C702.583 399.206 703.154 399.89 703.819 400.473C704.742 401.61 705.193 403.058 705.08 404.518C704.967 405.979 704.299 407.34 703.212 408.321L720.878 408.676C720.234 411.629 721.56 414.646 723.072 417.272C727.309 424.49 733.159 430.627 740.164 435.203C747.168 439.779 755.137 442.669 763.446 443.647C762.996 443.909 762.611 444.268 762.318 444.698C762.024 445.128 761.83 445.617 761.748 446.131C761.667 446.645 761.701 447.171 761.847 447.671C761.994 448.17 762.25 448.631 762.596 449.019C764.034 450.448 766.471 450.271 768.273 449.346C770.075 448.421 771.485 446.889 773.128 445.702C776.029 443.645 779.568 442.691 783.11 443.011C785.322 443.226 787.47 443.946 789.692 444.058C796.228 444.404 801.83 439.695 808.124 437.77C812.708 436.359 817.909 436.359 821.756 433.491C823.418 432.258 824.781 430.23 824.295 428.231C823.894 427.082 823.258 426.029 822.428 425.138C820.215 422.27 818.908 418.823 817.321 415.562C814.176 409.106 809.846 403.3 804.557 398.446C800.564 394.954 796.334 391.745 791.896 388.841C790.823 388.049 789.679 387.358 788.478 386.777C786.928 386.095 785.21 385.768 783.81 384.908C781.737 383.6 780.542 381.292 778.945 379.433C775.444 375.341 770.066 373.463 765.752 370.249C762.857 368.091 760.299 365.251 756.844 364.213C755.164 363.7 753.38 363.662 751.7 363.158C747.881 361.999 745.098 358.608 741.354 357.234C738.394 356.151 735.126 356.431 732.017 356.048C728.512 355.615 725.164 354.339 722.26 352.329C721.324 351.567 720.275 350.955 719.151 350.517C714.417 349.078 714.034 357.898 713.548 360.953C712.923 365.493 711.784 370.006 711.784 374.603Z" fill="#CCCCCC"/>
<path d="M716.395 404.182C717.189 412.797 710.691 421.14 712.586 429.576C712.987 431.37 713.762 433.08 714.043 434.902C714.836 439.9 711.848 444.637 709 448.823L684.537 484.746C683.555 486.323 682.382 487.773 681.045 489.063C676.377 493.22 669.355 492.8 663.212 494.033C658.896 494.92 654.82 496.724 651.26 499.321C651.1 499.445 650.994 499.627 650.966 499.828C650.938 500.029 650.99 500.233 651.111 500.396C652.125 501.778 653.469 502.884 655.02 503.613C656.571 504.343 658.279 504.672 659.99 504.572C660.634 505.413 659.99 506.665 659.103 507.272C657.796 508.206 655.985 508.421 655.723 510.654C655.635 511.43 655.791 512.214 656.171 512.896C657.16 514.402 658.692 515.466 660.448 515.867C668.916 518.465 678.067 513.905 684.407 507.711C690.747 501.517 695.294 493.697 701.512 487.4C704.958 483.905 708.87 480.925 712.418 477.543C719.495 470.788 725.004 462.594 730.308 454.382C731.904 451.906 733.52 449.365 734.183 446.496C734.846 443.628 734.537 440.723 735.294 437.948C736.283 434.313 738.944 431.408 741.157 428.362C745.499 422.382 748.403 415.067 747.824 407.695C747.245 400.324 742.689 393.055 735.742 390.551C733.587 389.694 731.215 389.55 728.972 390.14C726.125 391.018 724.024 393.373 722.082 395.634L717.413 400.997C716.276 402.184 715.385 403.584 714.789 405.117C714.488 405.889 714.416 406.731 714.582 407.543C714.748 408.355 715.144 409.102 715.723 409.695" fill="#FBBEBE"/>
<path d="M728.795 368.848C725.583 369.034 722.045 369.352 719.776 371.65C718.824 372.706 718.054 373.912 717.498 375.219C715.294 379.713 713.146 384.413 712.988 389.421C712.857 393.419 714.015 397.334 714.622 401.286C715.126 404.575 713.847 407.929 713.604 411.255C717.591 410.031 722.857 408.368 726.47 406.303C728.935 404.893 731.316 403.286 734.005 402.389C737.843 401.109 744.276 403.323 747.927 405.098C748.123 402.538 746.2 398.072 746.405 395.503C746.434 394.421 746.626 393.35 746.975 392.326C747.521 391.243 748.168 390.214 748.907 389.252C750.297 386.992 750.936 384.349 750.733 381.702C750.53 379.055 749.496 376.541 747.778 374.519C744.538 370.875 739.468 369.511 734.631 368.913C731.585 368.56 728.516 368.453 725.453 368.595" fill="#CCCCCC"/>
<defs>
<linearGradient id="paint0_linear_13:1307" x1="595.911" y1="511.074" x2="595.911" y2="54.5242" gradientUnits="userSpaceOnUse">
<stop stop-color="#808080" stop-opacity="0.25"/>
<stop offset="0.54" stop-color="#808080" stop-opacity="0.12"/>
<stop offset="1" stop-color="#808080" stop-opacity="0.1"/>
</linearGradient>
</defs>
</svg>
