<svg width="81" height="43" viewBox="0 0 81 43" fill="none" xmlns="http://www.w3.org/2000/svg">
<path d="M0.335938 17.1361C0.335938 16.7841 0.447938 16.4241 0.671938 16.0561L7.79994 3.19205H1.72794C1.42394 3.19205 1.18394 3.06405 1.00794 2.80805C0.847938 2.53605 0.767938 2.20805 0.767938 1.82405C0.767938 1.45605 0.847938 1.13605 1.00794 0.864054C1.16794 0.592054 1.40794 0.456055 1.72794 0.456055H10.8479C11.4719 0.456055 11.7839 0.736054 11.7839 1.29605C11.7839 1.64805 11.6639 2.02405 11.4239 2.42405L4.31994 15.2641H11.2319C11.5199 15.2641 11.7519 15.4081 11.9279 15.6961C12.1199 15.9681 12.2159 16.2801 12.2159 16.6321C12.2159 16.9841 12.1199 17.3041 11.9279 17.5921C11.7519 17.8641 11.5199 18.0001 11.2319 18.0001H1.27194C0.647937 18.0001 0.335938 17.7121 0.335938 17.1361Z" fill="#1D3557"/>
<path d="M13.979 17.0161V1.44005C13.979 1.13605 14.115 0.896054 14.387 0.720054C14.659 0.544055 14.979 0.456055 15.347 0.456055H23.891C24.211 0.456055 24.451 0.592054 24.611 0.864054C24.787 1.13605 24.875 1.44805 24.875 1.80005C24.875 2.18405 24.787 2.51205 24.611 2.78405C24.435 3.05605 24.195 3.19205 23.891 3.19205H17.099V7.99205H20.747C21.051 7.99205 21.291 8.12005 21.467 8.37605C21.643 8.61605 21.731 8.90406 21.731 9.24006C21.731 9.54405 21.643 9.82405 21.467 10.0801C21.307 10.3201 21.067 10.4401 20.747 10.4401H17.099V15.2641H23.891C24.195 15.2641 24.435 15.4001 24.611 15.6721C24.787 15.9441 24.875 16.2721 24.875 16.6561C24.875 17.0081 24.787 17.3201 24.611 17.5921C24.451 17.8641 24.211 18.0001 23.891 18.0001H15.347C14.979 18.0001 14.659 17.9121 14.387 17.7361C14.115 17.5601 13.979 17.3201 13.979 17.0161Z" fill="#1D3557"/>
<path d="M26.7056 17.0161V1.41605C26.7056 1.16005 26.8016 0.936054 26.9936 0.744054C27.1856 0.552054 27.4256 0.456055 27.7136 0.456055H32.4656C36.2576 0.456055 38.1536 2.12805 38.1536 5.47205C38.1536 6.78405 37.8656 7.84005 37.2896 8.64005C36.7296 9.44005 35.9696 9.98406 35.0096 10.2721L38.1536 16.1041C38.2336 16.2001 38.2736 16.3281 38.2736 16.4881C38.2736 16.8881 38.0656 17.2641 37.6496 17.6161C37.2336 17.9521 36.7936 18.1201 36.3296 18.1201C35.8656 18.1201 35.5056 17.8721 35.2496 17.3761L31.8416 10.7521H29.8256V17.0161C29.8256 17.3201 29.6736 17.5601 29.3696 17.7361C29.0656 17.9121 28.6976 18.0001 28.2656 18.0001C27.8496 18.0001 27.4816 17.9121 27.1616 17.7361C26.8576 17.5601 26.7056 17.3201 26.7056 17.0161ZM29.8256 8.30405H32.4656C34.1776 8.30405 35.0336 7.45605 35.0336 5.76005C35.0336 4.04805 34.1776 3.19205 32.4656 3.19205H29.8256V8.30405Z" fill="#1D3557"/>
<path d="M40.2011 12.6481V5.95205C40.2011 4.04805 40.7051 2.65605 41.7131 1.77605C42.7371 0.896054 44.1051 0.456055 45.8171 0.456055C47.5291 0.456055 48.8971 0.896054 49.9211 1.77605C50.9451 2.65605 51.4571 4.04805 51.4571 5.95205V12.6481C51.4571 14.5521 50.9451 15.9441 49.9211 16.8241C48.8971 17.7041 47.5291 18.1441 45.8171 18.1441C44.1051 18.1441 42.7371 17.7041 41.7131 16.8241C40.7051 15.9441 40.2011 14.5521 40.2011 12.6481ZM43.3211 12.6481C43.3211 14.4881 44.1531 15.4081 45.8171 15.4081C47.4971 15.4081 48.3371 14.4881 48.3371 12.6481V5.95205C48.3371 4.11205 47.4971 3.19205 45.8171 3.19205C44.1531 3.19205 43.3211 4.11205 43.3211 5.95205V12.6481Z" fill="#1D3557"/>
<path d="M26.4399 41.0401V25.4401C26.4399 25.1361 26.5759 24.8961 26.8479 24.7201C27.1199 24.5441 27.4399 24.4561 27.8079 24.4561H32.4399C35.6559 24.4561 37.2639 25.8641 37.2639 28.6801C37.2639 30.6321 36.5839 31.9041 35.2239 32.4961C36.0399 32.8161 36.6559 33.2721 37.0719 33.8641C37.4879 34.4401 37.6959 35.2881 37.6959 36.4081V36.9121C37.6959 38.6881 37.2639 39.9841 36.3999 40.8001C35.5359 41.6001 34.3679 42.0001 32.8959 42.0001H27.8079C27.4079 42.0001 27.0799 41.9041 26.8239 41.7121C26.5679 41.5201 26.4399 41.2961 26.4399 41.0401ZM29.5359 39.2641H32.2479C33.7999 39.2641 34.5759 38.3921 34.5759 36.6481V36.2641C34.5759 35.3681 34.3759 34.7201 33.9759 34.3201C33.5919 33.9201 33.0159 33.7201 32.2479 33.7201H29.5359V39.2641ZM29.5359 31.2721H32.2239C32.8479 31.2721 33.3199 31.0881 33.6399 30.7201C33.9759 30.3521 34.1439 29.8481 34.1439 29.2081C34.1439 28.5841 33.9679 28.0961 33.6159 27.7441C33.2799 27.3761 32.8079 27.1921 32.1999 27.1921H29.5359V31.2721Z" fill="#1D3557"/>
<path d="M38.6925 40.7041C38.6925 40.6721 38.7085 40.5921 38.7405 40.4641L43.3725 25.3681C43.4685 25.0321 43.7005 24.7761 44.0685 24.6001C44.4525 24.4081 44.8845 24.3121 45.3645 24.3121C45.8445 24.3121 46.2765 24.4081 46.6605 24.6001C47.0445 24.7761 47.2845 25.0321 47.3805 25.3681L52.0125 40.4641C52.0445 40.5921 52.0605 40.6721 52.0605 40.7041C52.0605 41.0561 51.8445 41.3601 51.4125 41.6161C50.9805 41.8721 50.5405 42.0001 50.0925 42.0001C49.5005 42.0001 49.1485 41.7921 49.0365 41.3761L48.1245 38.1841H42.6285L41.7165 41.3761C41.6045 41.7921 41.2525 42.0001 40.6605 42.0001C40.1965 42.0001 39.7485 41.8801 39.3165 41.6401C38.9005 41.3841 38.6925 41.0721 38.6925 40.7041ZM43.2765 35.7361H47.4525L45.3645 28.3681L43.2765 35.7361Z" fill="#1D3557"/>
<path d="M53.7212 41.0161V25.4401C53.7212 25.1201 53.8732 24.8801 54.1772 24.7201C54.4812 24.5441 54.8492 24.4561 55.2812 24.4561C55.8572 24.4561 56.2972 24.5601 56.6012 24.7681C56.9052 24.9761 57.2412 25.4241 57.6092 26.1121L62.2412 35.0641V25.4161C62.2412 25.0961 62.3932 24.8561 62.6972 24.6961C63.0012 24.5361 63.3692 24.4561 63.8012 24.4561C64.2332 24.4561 64.6012 24.5361 64.9052 24.6961C65.2092 24.8561 65.3612 25.0961 65.3612 25.4161V41.0161C65.3612 41.3201 65.2012 41.5601 64.8812 41.7361C64.5772 41.9121 64.2172 42.0001 63.8012 42.0001C62.9532 42.0001 62.3532 41.6721 62.0012 41.0161L56.8412 31.3681V41.0161C56.8412 41.3201 56.6812 41.5601 56.3612 41.7361C56.0572 41.9121 55.6972 42.0001 55.2812 42.0001C54.8492 42.0001 54.4812 41.9121 54.1772 41.7361C53.8732 41.5601 53.7212 41.3201 53.7212 41.0161Z" fill="#1D3557"/>
<path d="M68.2524 41.0161V25.4161C68.2524 25.0961 68.4044 24.8561 68.7084 24.6961C69.0124 24.5361 69.3804 24.4561 69.8124 24.4561C70.2444 24.4561 70.6124 24.5361 70.9164 24.6961C71.2204 24.8561 71.3724 25.0961 71.3724 25.4161V31.9681L76.5564 24.9121C76.7804 24.6081 77.0684 24.4561 77.4204 24.4561C77.8204 24.4561 78.2204 24.6321 78.6204 24.9841C79.0204 25.3201 79.2204 25.6801 79.2204 26.0641C79.2204 26.3041 79.1564 26.5041 79.0284 26.6641L74.7324 32.0401L79.9644 40.0081C80.0764 40.1681 80.1324 40.3521 80.1324 40.5601C80.1324 40.9441 79.9324 41.3041 79.5324 41.6401C79.1484 41.9601 78.7244 42.1201 78.2604 42.1201C77.7804 42.1201 77.4204 41.9201 77.1804 41.5201L72.6684 34.6801L71.3724 36.3121V41.0161C71.3724 41.3201 71.2124 41.5601 70.8924 41.7361C70.5884 41.9121 70.2284 42.0001 69.8124 42.0001C69.3804 42.0001 69.0124 41.9121 68.7084 41.7361C68.4044 41.5601 68.2524 41.3201 68.2524 41.0161Z" fill="#1D3557"/>
</svg>
