<svg width="493" height="661" viewBox="0 0 493 661" fill="none" xmlns="http://www.w3.org/2000/svg">
<path d="M350.152 219.652L259.332 172.372C259.332 172.372 228.833 138.747 209.679 123.559C190.526 108.371 184.63 119.529 184.63 119.529L176.578 132.963L196.036 160.057L248.596 204.615L342.511 241.442C343.98 243.85 346.101 245.791 348.628 247.04C351.155 248.289 353.984 248.794 356.786 248.498C359.589 248.201 362.25 247.114 364.46 245.364C366.67 243.614 368.339 241.271 369.272 238.609C370.206 235.947 370.365 233.075 369.733 230.325C369.101 227.576 367.702 225.063 365.7 223.078C363.698 221.092 361.174 219.717 358.421 219.11C355.669 218.504 352.802 218.692 350.152 219.652Z" fill="#9F616A"/>
<path d="M113.92 178.761L108.543 145.828L93.3604 142.028C93.3604 142.028 81.3109 138.313 78.4945 162.611C75.6781 186.91 77.8617 232.276 77.8617 232.276L47.0362 330.001C44.4721 331.195 42.2996 333.093 40.7716 335.476C39.2437 337.858 38.4231 340.626 38.4056 343.457C38.388 346.288 39.1742 349.066 40.6725 351.467C42.1708 353.868 44.3197 355.793 46.8688 357.019C49.4179 358.245 52.2624 358.721 55.071 358.391C57.8797 358.061 60.5369 356.939 62.7332 355.155C64.9296 353.372 66.5747 351.001 67.477 348.317C68.3793 345.634 68.5017 342.75 67.8299 340L108.227 247.476L113.92 178.761Z" fill="#9F616A"/>
<path d="M239.499 640.921L259.366 640.919L268.818 564.203L239.495 564.204L239.499 640.921Z" fill="#9F616A"/>
<path d="M234.432 634.427L273.557 634.425H273.559C280.172 634.426 286.513 637.056 291.189 641.737C295.865 646.418 298.492 652.767 298.493 659.387V660.198L234.433 660.201L234.432 634.427Z" fill="#2F2E41"/>
<path d="M22.8065 640.921L42.6743 640.919L52.125 564.203L22.8037 564.204L22.8065 640.921Z" fill="#9F616A"/>
<path d="M17.7393 634.427L56.8649 634.425H56.8665C63.4792 634.426 69.821 637.056 74.4969 641.737C79.1729 646.418 81.8 652.767 81.8005 659.387V660.198L17.7404 660.201L17.7393 634.427Z" fill="#2F2E41"/>
<path d="M120.887 112.975L87.935 141.137L114.978 226.814L121.08 245.946C121.08 245.946 83.8209 280.338 60.7671 376.411C37.7134 472.485 0 600.144 0 600.144L79.6064 622.957L144.371 405.629L220.55 576.13L229.346 626.56L297.138 606.548L281.147 480.073L201.19 261.143L209.496 203.109C209.496 203.109 221.968 174.142 200.301 143.474L193.504 114.656L169.158 108.653L120.887 112.975Z" fill="#2F2E41"/>
<path d="M175.631 97.6653H86.5397C84.7071 97.6633 82.9501 96.9335 81.6543 95.6362C80.3584 94.3389 79.6295 92.5799 79.6274 90.7452V52.3002C79.6274 38.6372 85.0489 25.5339 94.6991 15.8727C104.349 6.21153 117.438 0.783936 131.085 0.783936C144.733 0.783936 157.821 6.21153 167.472 15.8727C177.122 25.5339 182.543 38.6372 182.543 52.3002V90.7452C182.541 92.5799 181.812 94.3389 180.517 95.6362C179.221 96.9335 177.464 97.6633 175.631 97.6653Z" fill="#2F2E41"/>
<path d="M174.763 77.1172C184.758 58.8137 178.039 35.8647 159.756 25.8591C141.473 15.8535 118.55 22.5803 108.556 40.8837C98.5614 59.1872 105.281 82.1363 123.563 92.1419C141.846 102.147 164.769 95.4207 174.763 77.1172Z" fill="#9F616A"/>
<path d="M194.717 56.1447H140.24L139.681 48.3145L136.888 56.1447H128.5L127.393 40.6256L121.857 56.1447H105.626V55.3758C105.638 44.5716 109.931 34.2133 117.562 26.5735C125.193 18.9338 135.539 14.6364 146.331 14.6241H154.012C164.804 14.6363 175.15 18.9337 182.782 26.5735C190.413 34.2133 194.705 44.5715 194.717 55.3758V56.1447Z" fill="#2F2E41"/>
<path d="M139.794 104.842C139.384 104.841 138.975 104.805 138.571 104.734L98.6802 97.6875V31.6853H142.592L141.505 32.9543C126.379 50.6149 137.775 79.2519 145.914 94.7501C146.514 95.8852 146.781 97.1668 146.685 98.4474C146.59 99.728 146.134 100.956 145.372 101.989C144.734 102.872 143.896 103.591 142.926 104.087C141.957 104.583 140.883 104.842 139.794 104.842Z" fill="#2F2E41"/>
<path d="M469.687 450.861L120.084 574.607C111.44 577.655 101.941 577.147 93.6713 573.193C85.4015 569.239 79.036 562.162 75.9713 553.515L15.9145 383.459C12.8693 374.806 13.3773 365.296 17.3268 357.017C21.2764 348.737 28.3451 342.365 36.982 339.297L386.585 215.551C395.229 212.503 404.728 213.011 412.998 216.965C421.267 220.919 427.633 227.996 430.698 236.643L490.754 406.699C493.8 415.352 493.292 424.862 489.342 433.141C485.392 441.42 478.324 447.793 469.687 450.861Z" fill="white"/>
<path d="M490.754 406.699L491.072 407.598C493.989 415.863 493.508 424.949 489.733 432.858C485.959 440.766 479.201 446.85 470.946 449.771L119.595 574.135C111.342 577.055 102.268 576.574 94.3691 572.797C86.4702 569.02 80.3931 562.257 77.4745 553.995L77.1567 553.096L490.754 406.699Z" fill="#F2F2F2"/>
<path d="M98.2671 378.78C75.0937 394.046 45.3938 382.557 35.0068 365.823L36.6629 364.881C56.3912 352.57 85.6892 359.429 98.2671 378.78Z" fill="#A8DADC"/>
<path d="M388.663 422.091C382.991 424.099 377.884 424.006 373.482 421.817C363.533 416.868 358.865 402.194 355.114 390.403C354.022 386.973 352.991 383.733 351.941 381.085L351.926 381.044C350.1 375.791 350.418 370.028 352.811 365.008C355.205 359.988 359.48 356.116 364.708 354.233L411.732 337.588C417.397 335.583 422.499 335.675 426.897 337.86C436.844 342.803 441.516 357.472 445.271 369.258C446.365 372.695 447.399 375.942 448.453 378.594C450.289 383.853 449.977 389.625 447.585 394.654C445.192 399.684 440.912 403.564 435.676 405.45L388.663 422.091ZM353.897 380.331C354.97 383.043 356.01 386.309 357.11 389.767C360.741 401.18 365.26 415.385 374.414 419.939C378.343 421.893 382.776 421.95 387.965 420.114L434.975 403.474C439.684 401.779 443.535 398.292 445.691 393.771C447.847 389.25 448.135 384.06 446.491 379.329C445.425 376.649 444.381 373.369 443.274 369.895C439.64 358.486 435.117 344.286 425.965 339.739C422.04 337.788 417.612 337.732 412.431 339.566L365.409 356.21C360.706 357.904 356.859 361.387 354.704 365.903C352.548 370.419 352.258 375.603 353.897 380.331Z" fill="#3F3D56"/>
<path d="M88.5202 384.277C80.257 387.146 71.3556 387.635 62.8281 385.691C50.3746 382.953 39.0725 375.509 33.3331 366.265L32.7578 365.339L35.3425 363.868C55.3676 351.381 85.3959 358.15 98.3574 378.087L98.9257 378.961L98.0555 379.534C95.0807 381.496 91.8788 383.089 88.5202 384.277ZM35.7047 366.074C41.3217 374.43 51.774 381.113 63.2775 383.642C74.4597 386.257 86.2207 384.357 96.0137 378.353C83.3349 359.993 55.2449 353.903 36.4332 365.659L35.7047 366.074Z" fill="#3F3D56"/>
<path d="M100.803 506.332C97.8668 507.496 94.6701 507.837 91.5554 507.319C88.4407 506.801 85.5256 505.444 83.1229 503.393C80.3107 500.933 78.1787 497.788 76.9326 494.263C75.6865 490.738 75.3682 486.952 76.0083 483.268C76.6029 480.098 78.0625 477.155 80.2253 474.764C82.3881 472.374 85.1697 470.63 88.2619 469.725L150.918 447.548C153.891 446.314 157.147 445.926 160.327 446.427C163.507 446.928 166.486 448.298 168.938 450.386C171.748 452.848 173.879 455.993 175.123 459.518C176.368 463.042 176.685 466.829 176.043 470.512C174.806 476.985 170.441 481.753 163.787 484.036L101.13 506.214C101.021 506.254 100.912 506.294 100.803 506.332ZM88.6517 471.809C85.9782 472.635 83.5801 474.175 81.7151 476.263C79.8501 478.352 78.5886 480.909 78.0663 483.661C77.4896 486.98 77.7764 490.391 78.899 493.567C80.0217 496.742 81.9424 499.575 84.476 501.792C86.648 503.634 89.2871 504.838 92.1009 505.271C94.9147 505.703 97.7931 505.347 100.417 504.242L163.104 482.053C165.841 481.263 168.306 479.729 170.227 477.623C172.148 475.516 173.448 472.919 173.986 470.118C174.563 466.799 174.278 463.388 173.157 460.213C172.035 457.037 170.116 454.204 167.584 451.987C165.408 450.146 162.768 448.942 159.953 448.506C157.139 448.071 154.258 448.422 151.63 449.52L88.9395 471.71C88.8433 471.742 88.7468 471.775 88.6516 471.809L88.6517 471.809Z" fill="#3F3D56"/>
<path d="M389.083 372.056L369.331 379.047C368.021 379.511 366.581 379.435 365.328 378.835C364.075 378.236 363.11 377.163 362.647 375.852C362.184 374.541 362.26 373.099 362.859 371.844C363.458 370.589 364.53 369.624 365.839 369.161L385.591 362.169C386.9 361.706 388.34 361.782 389.594 362.381C390.847 362.981 391.812 364.054 392.275 365.365C392.738 366.676 392.661 368.118 392.063 369.372C391.464 370.627 390.392 371.593 389.083 372.056Z" fill="#A8DADC"/>
<path d="M394.669 387.875L374.917 394.867C373.608 395.33 372.168 395.254 370.914 394.655C369.661 394.055 368.697 392.982 368.234 391.671C367.771 390.36 367.847 388.918 368.445 387.663C369.044 386.409 370.116 385.443 371.426 384.98L391.177 377.988C392.487 377.525 393.927 377.601 395.18 378.2C396.434 378.8 397.398 379.873 397.861 381.184C398.324 382.495 398.248 383.937 397.649 385.192C397.051 386.446 395.979 387.412 394.669 387.875Z" fill="#A8DADC"/>
<path d="M400.255 403.695L380.504 410.686C379.855 410.915 379.168 411.015 378.481 410.979C377.794 410.942 377.121 410.771 376.501 410.474C375.88 410.177 375.324 409.761 374.864 409.249C374.404 408.737 374.049 408.139 373.82 407.49C373.591 406.841 373.491 406.153 373.528 405.465C373.564 404.778 373.735 404.104 374.032 403.483C374.328 402.861 374.744 402.305 375.255 401.844C375.767 401.384 376.364 401.028 377.012 400.799L396.764 393.808C397.412 393.578 398.099 393.479 398.786 393.515C399.473 393.552 400.146 393.723 400.767 394.02C401.387 394.316 401.944 394.733 402.403 395.245C402.863 395.756 403.218 396.354 403.447 397.003C403.677 397.653 403.776 398.341 403.74 399.028C403.703 399.716 403.532 400.389 403.236 401.011C402.939 401.632 402.523 402.189 402.012 402.649C401.501 403.11 400.904 403.465 400.255 403.695Z" fill="#A8DADC"/>
<path d="M423.647 359.821L403.896 366.813C403.247 367.042 402.56 367.142 401.873 367.105C401.187 367.069 400.514 366.897 399.893 366.601C399.272 366.304 398.716 365.888 398.256 365.376C397.796 364.864 397.441 364.266 397.212 363.617C396.983 362.968 396.884 362.28 396.92 361.592C396.956 360.904 397.128 360.231 397.424 359.609C397.72 358.988 398.136 358.431 398.647 357.971C399.159 357.51 399.756 357.155 400.404 356.926L420.156 349.934C421.465 349.471 422.905 349.547 424.159 350.146C425.412 350.746 426.377 351.819 426.84 353.13C427.303 354.441 427.226 355.883 426.628 357.138C426.029 358.392 424.957 359.358 423.647 359.821Z" fill="#A8DADC"/>
<path d="M429.234 375.641L409.483 382.632C408.834 382.862 408.147 382.961 407.46 382.925C406.773 382.888 406.1 382.717 405.48 382.42C404.859 382.123 404.303 381.707 403.843 381.195C403.383 380.683 403.028 380.086 402.799 379.436C402.57 378.787 402.47 378.099 402.507 377.411C402.543 376.724 402.714 376.05 403.011 375.429C403.307 374.807 403.723 374.251 404.234 373.79C404.746 373.33 405.343 372.975 405.991 372.745L425.743 365.754C426.391 365.524 427.078 365.425 427.765 365.461C428.452 365.498 429.125 365.669 429.746 365.966C430.366 366.263 430.922 366.679 431.382 367.191C431.842 367.703 432.197 368.3 432.426 368.949C432.656 369.599 432.755 370.287 432.719 370.974C432.682 371.662 432.511 372.336 432.215 372.957C431.918 373.578 431.502 374.135 430.991 374.596C430.48 375.056 429.883 375.411 429.234 375.641Z" fill="#A8DADC"/>
<path d="M434.821 391.46L415.069 398.451C413.76 398.915 412.32 398.838 411.066 398.239C409.813 397.64 408.849 396.566 408.385 395.255C407.922 393.944 407.999 392.503 408.597 391.248C409.196 389.993 410.268 389.028 411.578 388.564L431.329 381.573C431.978 381.343 432.665 381.244 433.352 381.28C434.039 381.317 434.711 381.488 435.332 381.785C435.953 382.082 436.509 382.498 436.969 383.01C437.429 383.522 437.784 384.119 438.013 384.769C438.242 385.418 438.341 386.106 438.305 386.793C438.269 387.481 438.098 388.155 437.801 388.776C437.505 389.397 437.089 389.954 436.578 390.415C436.066 390.875 435.469 391.23 434.821 391.46Z" fill="#A8DADC"/>
<path d="M443.774 273.661L30.1753 420.059L30.8736 422.036L444.473 275.638L443.774 273.661Z" fill="#3F3D56"/>
<path d="M469.687 450.861L120.084 574.607C111.44 577.655 101.941 577.147 93.6713 573.193C85.4015 569.239 79.036 562.162 75.9713 553.515L15.9145 383.459C12.8693 374.806 13.3773 365.296 17.3268 357.017C21.2764 348.737 28.3451 342.365 36.982 339.297L386.585 215.551C395.229 212.503 404.728 213.011 412.998 216.965C421.267 220.919 427.633 227.996 430.698 236.643L490.754 406.699C493.8 415.352 493.292 424.862 489.342 433.141C485.392 441.42 478.324 447.793 469.687 450.861ZM37.6804 341.274C29.5669 344.156 22.9266 350.143 19.2164 357.92C15.5063 365.698 15.0291 374.631 17.8896 382.76L77.9465 552.816C80.8254 560.939 86.8052 567.587 94.5738 571.301C102.342 575.015 111.266 575.493 119.386 572.629L468.988 448.884C477.102 446.002 483.742 440.015 487.452 432.238C491.163 424.46 491.64 415.527 488.779 407.398L428.722 237.342C425.843 229.219 419.864 222.571 412.095 218.857C404.326 215.143 395.403 214.665 387.283 217.529L37.6804 341.274Z" fill="#3F3D56"/>
</svg>
